<?xml version="1.0" encoding="UTF-8"?>
<svg width="1068px" height="578px" viewBox="0 0 1068 578" version="1.1" xmlns="http://www.w3.org/2000/svg" xmlns:xlink="http://www.w3.org/1999/xlink">
    <!-- Generator: Sketch 51.1 (57501) - http://www.bohemiancoding.com/sketch -->
    <title>Group</title>
    <desc>Created with Sketch.</desc>
    <defs></defs>
    <g id="Page-1" stroke="none" stroke-width="1" fill="none" fill-rule="evenodd">
        <g id="Rocketgram---Marca-&amp;-S°mbolo-(Centralizada)" transform="translate(-426.000000, -249.000000)" fill="#ff5b01">
            <g id="Group" transform="translate(426.000000, 249.000000)">
                <g id="Group-21" transform="translate(0.000000, 392.000000)">
                    <path d="M74.0216,57.5303 C74.0216,55.0143 73.5516,52.5683 72.6136,50.1983 C71.6746,47.8273 70.3546,45.7043 68.6526,43.8313 C66.9506,41.9583 64.9266,40.4363 62.5806,39.2643 C60.2326,38.0943 57.6806,37.4203 54.9236,37.2443 C52.8696,37.1863 50.8596,37.1423 48.8946,37.1123 C46.9286,37.0833 44.8906,37.0683 42.7786,37.0683 L25.4406,37.0683 L25.4406,77.9043 L48.6746,77.9043 L51.9756,77.9043 C53.0006,77.9043 54.1016,77.8463 55.2756,77.7283 C58.0326,77.5523 60.5696,76.9083 62.8886,75.7963 C65.2056,74.6853 67.1856,73.2073 68.8286,71.3613 C70.4706,69.5173 71.7466,67.4093 72.6576,65.0383 C73.5666,62.6673 74.0216,60.1653 74.0216,57.5303 Z M0.8306,25.2023 C0.8306,22.4453 1.1206,15.0663 3.7026,15.0663 L57.5636,15.0663 C63.4886,15.0663 69.0336,16.1813 74.1976,18.4103 C79.3596,20.6413 83.8636,23.6623 87.7066,27.4753 C91.5486,31.2893 94.5716,35.7783 96.7716,40.9403 C98.9716,46.1043 100.0716,51.5903 100.0716,57.3983 C100.0716,61.4463 99.5136,65.3193 98.3996,69.0153 C97.2846,72.7123 95.7296,76.1443 93.7356,79.3123 C91.7396,82.4803 89.3636,85.3413 86.6066,87.8933 C83.8486,90.4453 80.7986,92.6013 77.4536,94.3613 L100.3356,139.5113 C100.4526,140.0983 100.6576,140.6853 100.9526,141.2703 C101.2446,141.8573 101.3916,142.4733 101.3916,143.1193 C101.3916,144.8783 100.3646,145.7593 98.3116,145.7593 L77.8936,145.7593 C75.7816,145.7593 74.3736,144.6733 73.6696,142.5023 L52.3716,100.2583 C51.4326,100.2583 50.4196,100.2743 49.3346,100.3033 C48.2486,100.3333 46.7526,100.3463 44.8466,100.3463 L37.3656,100.3463 L25.4406,100.3463 L25.4406,141.9743 C25.4406,144.4983 24.0906,145.7593 21.3926,145.7593 L3.7026,145.7593 C2.5286,145.7593 2.5906,151.4513 1.8866,150.8353 C1.1826,150.2193 0.8306,149.2653 0.8306,147.9743 L0.8306,25.2023 Z" id="Fill-1"></path>
                    <path d="M123.4031,90.0497 C123.4031,94.7447 124.2241,99.1887 125.8671,103.3827 C127.5091,107.5777 129.7971,111.2307 132.7321,114.3407 C135.6651,117.4497 139.1411,119.9147 143.1611,121.7327 C147.1791,123.5517 151.5661,124.4607 156.3181,124.4607 C160.9521,124.4607 165.2511,123.5517 169.2111,121.7327 C173.1721,119.9147 176.5891,117.4497 179.4651,114.3407 C182.3381,111.2307 184.5831,107.5777 186.1971,103.3827 C187.8101,99.1887 188.6171,94.7447 188.6171,90.0497 C188.6171,85.4157 187.8101,80.9847 186.1971,76.7607 C184.5831,72.5367 182.3381,68.8267 179.4651,65.6277 C176.5891,62.4307 173.1721,59.8777 169.2111,57.9707 C165.2511,56.0647 160.9521,55.1107 156.3181,55.1107 C151.5661,55.1107 147.1791,56.0647 143.1611,57.9707 C139.1411,59.8777 135.6651,62.4307 132.7321,65.6277 C129.7971,68.8267 127.5091,72.5367 125.8671,76.7607 C124.2241,80.9847 123.4031,85.4157 123.4031,90.0497 M98.5851,90.0497 C98.5851,84.7117 99.2741,79.5627 100.6511,74.6047 C102.0291,69.6467 103.9781,65.0267 106.5001,60.7427 C109.0201,56.4607 112.0401,52.5737 115.5581,49.0817 C119.0751,45.5917 122.9741,42.5997 127.2531,40.1057 C131.5331,37.6117 136.1201,35.6757 141.0151,34.2967 C145.9111,32.9187 151.0261,32.2287 156.3621,32.2287 C161.6391,32.2287 166.7391,32.9187 171.6631,34.2967 C176.5881,35.6757 181.1751,37.6117 185.4261,40.1057 C189.6761,42.5997 193.5611,45.5917 197.0781,49.0817 C200.5961,52.5737 203.6141,56.4607 206.1361,60.7427 C208.6571,65.0267 210.6071,69.6467 211.9851,74.6047 C213.3631,79.5627 214.0521,84.7117 214.0521,90.0497 C214.0521,95.3897 213.3631,100.5227 211.9851,105.4517 C210.6071,110.3797 208.6571,114.9707 206.1361,119.2237 C203.6141,123.4797 200.5961,127.3657 197.0781,130.8857 C193.5611,134.4057 189.6761,137.4137 185.4261,139.9067 C181.1751,142.4017 176.5881,144.3367 171.6631,145.7147 C166.7391,147.0927 161.6391,147.7837 156.3621,147.7837 C151.0261,147.7837 145.9111,147.0927 141.0151,145.7147 C136.1201,144.3367 131.5331,142.4017 127.2531,139.9067 C122.9741,137.4137 119.0751,134.4057 115.5581,130.8857 C112.0401,127.3657 109.0201,123.4797 106.5001,119.2237 C103.9781,114.9707 102.0291,110.3797 100.6511,105.4517 C99.2741,100.5227 98.5851,95.3897 98.5851,90.0497" id="Fill-3"></path>
                    <path d="M300.7499,116.4524 C301.7469,115.8074 302.5829,115.4114 303.2579,115.2644 C303.9319,115.1184 304.5039,115.0444 304.9739,115.0444 C305.9709,115.1034 306.8219,115.6314 307.5259,116.6284 L309.6389,119.5334 L315.8869,128.4224 C316.1799,128.8334 316.4159,129.2584 316.5909,129.6974 C316.7679,130.1384 316.8549,130.5344 316.8549,130.8854 C316.8549,131.8254 316.5319,132.6614 315.8869,133.3944 C315.2409,134.1284 314.3909,134.8774 313.3349,135.6384 C308.3479,139.2774 302.9639,142.2104 297.1849,144.4394 C291.4059,146.6684 285.0539,147.7834 278.1319,147.7834 C272.9089,147.7834 267.8479,147.0934 262.9499,145.7154 C258.0509,144.3374 253.4739,142.4014 249.2209,139.9064 C244.9659,137.4144 241.0799,134.4214 237.5599,130.9304 C234.0389,127.4394 231.0029,123.5524 228.4509,119.2684 C225.8989,114.9864 223.9319,110.3794 222.5539,105.4514 C221.1749,100.5234 220.4859,95.3894 220.4859,90.0504 C220.4859,84.7124 221.1749,79.5774 222.5539,74.6484 C223.9319,69.7204 225.8989,65.1154 228.4509,60.8314 C231.0029,56.5494 234.0389,52.6624 237.5599,49.1704 C241.0799,45.6804 244.9659,42.6884 249.2209,40.1934 C253.4739,37.7004 258.0509,35.7644 262.9499,34.3854 C267.8479,33.0074 272.9089,32.3164 278.1319,32.3164 C284.6439,32.3164 290.8049,33.3154 296.6129,35.3094 C302.4219,37.3044 307.5839,40.0034 312.1029,43.4054 L312.0149,43.3174 C312.8359,44.1404 313.6429,44.8584 314.4349,45.4744 C315.2269,46.0904 315.6229,47.0444 315.6229,48.3344 C315.6229,48.6864 315.6079,49.0974 315.5789,49.5664 C315.5489,50.0374 315.3879,50.4764 315.0949,50.8864 L307.8789,61.8874 C306.7039,63.6474 305.4139,64.5284 304.0059,64.5284 C303.0079,64.5284 301.8939,64.0304 300.6619,63.0314 C297.6699,60.5094 294.1779,58.4554 290.1889,56.8714 C286.1979,55.2864 282.0919,54.4944 277.8669,54.4944 C273.2909,54.4944 268.9929,55.4494 264.9749,57.3554 C260.9549,59.2624 257.4189,61.8434 254.3689,65.0994 C251.3179,68.3564 248.9129,72.1404 247.1529,76.4534 C245.3919,80.7654 244.5119,85.2974 244.5119,90.0504 C244.5119,94.9214 245.3919,99.4974 247.1529,103.7794 C248.9129,108.0634 251.3029,111.7874 254.3249,114.9564 C257.3469,118.1254 260.8819,120.6334 264.9299,122.4814 C268.9789,124.3294 273.2909,125.2534 277.8669,125.2534 C282.8539,125.2534 287.1659,124.3894 290.8049,122.6574 C294.4419,120.9274 297.7579,118.8594 300.7499,116.4524" id="Fill-5"></path>
                    <path d="M324,6.0898 C324,4.5648 324.308,3.3038 324.924,2.3058 C325.54,1.3088 327.021,0.8088 329.369,0.8088 L344.418,0.8088 C346.119,0.8088 347.352,1.3238 348.114,2.3498 C348.876,3.3768 349.259,4.4768 349.259,5.6498 L349.259,78.2568 L387.982,36.3648 C388.744,35.6028 389.523,35.0158 390.315,34.6048 C391.106,34.1948 392.06,33.9888 393.175,33.9888 L413.329,33.9888 C414.619,33.9888 415.587,34.2528 416.233,34.7808 C416.878,35.3088 417.201,36.0128 417.201,36.8928 C417.201,37.4798 417.113,38.0078 416.937,38.4768 C416.761,38.9468 416.438,39.4758 415.969,40.0608 L376.453,81.3368 L423.362,139.2468 L423.186,139.2468 C423.831,139.8928 424.286,140.5968 424.55,141.3588 C424.814,142.1218 424.946,142.7378 424.946,143.2078 C424.946,144.2048 424.651,144.8798 424.066,145.2308 C423.479,145.5838 422.599,145.7588 421.425,145.7588 L398.984,145.7588 C397.281,145.7588 395.639,144.5268 394.055,142.0628 L359.996,97.7948 L349.435,108.7958 L349.435,140.4788 C349.435,141.0068 349.347,141.5798 349.17,142.1958 C348.995,142.8108 348.716,143.3838 348.335,143.9118 C347.952,144.4388 347.439,144.8798 346.794,145.2308 C346.148,145.5838 345.356,145.7588 344.418,145.7588 L328.841,145.7588 C327.961,145.7588 327.226,145.5838 326.64,145.2308 C326.053,144.8798 325.554,144.4388 325.144,143.9118 C324.733,143.3838 324.44,142.8418 324.264,142.2838 C324.088,141.7258 324,141.2718 324,140.9188 L324,6.0898 Z" id="Fill-7"></path>
                    <path d="M467.5015,54.055 C464.0385,54.055 460.6645,54.686 457.3805,55.947 C454.0935,57.21 451.0875,58.926 448.3595,61.095 C445.6315,63.267 443.2545,65.819 441.2315,68.752 C439.2065,71.687 437.7245,74.855 436.7855,78.257 L499.0965,78.257 C498.1565,74.679 496.7335,71.408 494.8275,68.444 C492.9205,65.482 490.6165,62.93 487.9195,60.788 C485.2195,58.647 482.1395,56.989 478.6785,55.815 C475.2155,54.642 471.4905,54.055 467.5015,54.055 M506.5765,133.438 C501.4125,137.839 495.7655,141.301 489.6355,143.823 C483.5035,146.345 476.7705,147.608 469.4365,147.608 C461.5165,147.608 454.0055,146.112 446.9065,143.119 C439.8075,140.127 433.5885,136.021 428.2495,130.798 C422.9095,125.577 418.6705,119.46 415.5315,112.448 C412.3925,105.438 410.8235,97.883 410.8235,89.786 C410.8235,84.565 411.4685,79.52 412.7595,74.649 C414.0495,69.779 415.8835,65.218 418.2605,60.964 C420.6365,56.71 423.5255,52.809 426.9295,49.259 C430.3315,45.709 434.1305,42.673 438.3265,40.15 C442.5205,37.628 447.0685,35.676 451.9675,34.297 C456.8655,32.919 462.0445,32.229 467.5015,32.229 C471.9595,32.229 476.3595,32.772 480.7025,33.857 C485.0435,34.943 489.1655,36.484 493.0675,38.477 C496.9685,40.473 500.6215,42.893 504.0245,45.738 C507.4265,48.584 510.4185,51.797 513.0015,55.375 C516.5225,60.303 519.1025,65.614 520.7465,71.304 C522.3885,76.996 523.2105,83.304 523.2105,90.226 C523.2105,91.929 523.1355,93.351 522.9905,94.495 C522.8435,95.639 522.4765,96.563 521.8895,97.267 C521.3025,97.971 520.4225,98.486 519.2505,98.807 C518.0765,99.13 516.4335,99.291 514.3215,99.291 L436.2585,99.291 C437.0205,103.515 438.4715,107.256 440.6145,110.512 C442.7555,113.769 445.2935,116.527 448.2265,118.785 C451.1595,121.045 454.3575,122.745 457.8195,123.89 C461.2815,125.033 464.7425,125.606 468.2055,125.606 C470.8445,125.606 473.3825,125.341 475.8175,124.814 C478.2525,124.286 480.5265,123.582 482.6385,122.701 C484.7505,121.821 486.7005,120.809 488.4915,119.665 C490.2795,118.521 491.8495,117.333 493.1995,116.101 C493.1995,116.043 493.2285,116.013 493.2875,116.013 C493.9915,115.368 494.6655,114.855 495.3115,114.473 C495.9565,114.091 496.6315,113.9 497.3355,113.9 C497.8635,113.9 498.4645,114.077 499.1405,114.428 C499.8135,114.781 500.4745,115.368 501.1205,116.189 C502.7045,118.125 504.0535,119.739 505.1685,121.029 C506.2825,122.32 507.1935,123.405 507.8975,124.286 C508.6015,125.165 509.1135,125.928 509.4375,126.574 C509.7595,127.22 509.9215,127.865 509.9215,128.51 C509.9215,130.153 508.8055,131.796 506.5765,133.438" id="Fill-9"></path>
                    <path d="M570.7311,145.7592 C566.0951,145.7012 561.7391,144.9952 557.6621,143.6452 C553.5831,142.2952 550.0341,140.3422 547.0131,137.7872 C543.9901,135.2322 541.6001,132.0902 539.8401,128.3612 C538.0801,124.6312 537.2001,120.3882 537.2001,115.6292 L537.2001,101.0952 L537.2001,56.1662 L527.0791,56.1662 C525.3761,56.1662 524.1001,55.7862 523.2511,55.0272 C522.4001,54.2682 521.9751,53.0112 521.9751,51.2562 L521.9751,38.6352 C521.9751,36.9402 522.4001,35.7412 523.2511,35.0402 C524.1001,34.3382 525.3761,33.9882 527.0791,33.9882 L537.2001,33.9882 C537.2001,30.8792 537.2131,27.7832 537.2441,24.7032 C537.2721,21.6232 537.2881,18.5292 537.2881,15.4182 C537.2881,14.2452 537.6541,13.3212 538.3881,12.6462 C539.1211,11.9722 540.2501,11.3692 541.7771,10.8422 C542.7731,10.4902 543.9771,10.0652 545.3851,9.5652 C546.7931,9.0682 548.2451,8.5842 549.7411,8.1132 C551.2371,7.6442 552.6901,7.2492 554.0981,6.9252 C555.5061,6.6032 556.6781,6.4412 557.6181,6.4412 C559.4361,6.4412 560.6241,6.9402 561.1831,7.9372 C561.7391,8.9362 562.0181,10.2562 562.0181,11.8982 C562.0181,15.5942 562.0031,19.2762 561.9741,22.9432 C561.9451,26.6102 561.9301,30.2912 561.9301,33.9882 L574.6041,33.9882 C576.1291,33.9882 577.3021,34.3822 578.1241,35.1722 C578.9451,35.9612 579.3561,37.2032 579.3561,38.8972 L579.3561,50.9062 C579.3561,52.7762 578.9451,54.1212 578.1241,54.9392 C577.3021,55.7572 576.1291,56.1662 574.6041,56.1662 L561.9301,56.1662 L561.9301,65.8592 L561.9301,72.8652 C561.9301,74.8922 561.9451,76.7872 561.9741,78.5502 C562.0031,80.3132 562.0181,82.2222 562.0181,84.2782 L562.0181,91.3272 L562.0181,101.0202 C562.0181,101.1382 562.0031,101.2552 561.9741,101.3742 C561.9451,101.4922 561.9301,101.6092 561.9301,101.7252 L561.9301,113.2702 C561.9301,117.1482 562.6921,119.9382 564.2191,121.6422 C565.7441,123.3462 568.2071,124.1972 571.6121,124.1972 C572.8431,124.1972 573.8121,124.6372 574.5161,125.5172 C575.2201,126.3972 575.5711,127.4532 575.5711,128.6852 L575.5711,140.9192 C575.5711,142.4452 575.1451,143.6322 574.2961,144.4822 C573.4451,145.3342 572.2561,145.7592 570.7311,145.7592" id="Fill-11"></path>
                    <path d="M603.7831,89.6098 C603.7831,94.3048 604.6041,98.7488 606.2471,102.9438 C607.8891,107.1388 610.1771,110.8198 613.1121,113.9888 C616.0451,117.1568 619.4921,119.6648 623.4531,121.5128 C627.4131,123.3618 631.7401,124.2858 636.4341,124.2858 C641.0681,124.2858 645.4401,123.3768 649.5471,121.5578 C653.6541,119.7388 657.2331,117.2888 660.2841,114.2078 C663.3341,111.1278 665.7541,107.5348 667.5451,103.4278 C669.3341,99.3208 670.2871,94.9788 670.4061,90.4018 L670.4061,88.9938 C670.2871,84.4178 669.3341,80.0758 667.5451,75.9688 C665.7541,71.8628 663.3341,68.2538 660.2841,65.1438 C657.2331,62.0338 653.6541,59.5698 649.5471,57.7508 C645.4401,55.9328 641.0681,55.0228 636.4341,55.0228 C631.7401,55.0228 627.4131,55.9468 623.4531,57.7948 C619.4921,59.6428 616.0451,62.1518 613.1121,65.3198 C610.1771,68.4878 607.8891,72.1708 606.2471,76.3648 C604.6041,80.5598 603.7831,84.9758 603.7831,89.6098 M668.7331,137.8388 C669.0261,136.7828 669.1731,135.5368 669.1731,134.0988 C669.1731,132.6618 669.2311,131.3258 669.3491,130.0938 C667.2371,132.3248 664.9921,134.4068 662.6171,136.3418 C660.2401,138.2788 657.6731,139.9658 654.9161,141.4028 C652.1581,142.8418 649.1651,143.9708 645.9391,144.7918 C642.7121,145.6138 639.2201,146.0238 635.4651,146.0238 C630.1861,146.0238 625.1251,145.3788 620.2851,144.0878 C615.4441,142.7978 610.9401,140.9488 606.7751,138.5428 C602.6091,136.1378 598.8241,133.2338 595.4221,129.8298 C592.0181,126.4278 589.0991,122.6438 586.6651,118.4768 C584.2291,114.3118 582.3531,109.7948 581.0331,104.9228 C579.7131,100.0538 579.0531,94.9498 579.0531,89.6098 C579.0531,84.3298 579.7131,79.2248 581.0331,74.2958 C582.3531,69.3678 584.2291,64.7778 586.6651,60.5228 C589.0991,56.2698 592.0181,52.3828 595.4221,48.8618 C598.8241,45.3418 602.6091,42.3358 606.7751,39.8408 C610.9401,37.3478 615.4441,35.4118 620.2851,34.0328 C625.1251,32.6548 630.1861,31.9648 635.4651,31.9648 C639.2201,31.9648 642.7551,32.3608 646.0701,33.1518 C649.3851,33.9448 652.4961,35.0748 655.4001,36.5408 C658.3041,38.0078 661.0171,39.7388 663.5411,41.7338 C666.0631,43.7288 668.3811,45.8998 670.4931,48.2458 C670.7271,46.6618 670.9471,45.1078 671.1531,43.5818 C671.3581,42.0568 671.5491,40.5008 671.7261,38.9168 C672.0771,37.2748 672.5901,35.9988 673.2651,35.0888 C673.9391,34.1798 675.2151,33.7248 677.0931,33.7248 C679.0301,33.7248 680.9511,33.7398 682.8581,33.7688 C684.7641,33.7988 686.6871,33.8128 688.6231,33.8128 C689.9721,33.8128 691.1601,34.2828 692.1871,35.2208 C693.2131,36.1598 693.7281,37.3918 693.7281,38.9168 L693.7281,39.6208 L693.7281,128.6858 C693.7281,138.3098 692.1721,146.6538 689.0631,153.7238 C685.9521,160.7938 681.7281,166.6608 676.3891,171.3258 C671.0501,175.9898 664.8461,179.4668 657.7761,181.7548 C650.7051,184.0428 643.2111,185.1868 635.2901,185.1868 C631.9451,185.1868 628.5861,184.9078 625.2131,184.3508 C621.8391,183.7928 618.5381,183.0008 615.3121,181.9748 C612.0851,180.9478 609.0041,179.6868 606.0711,178.1898 C603.1371,176.6948 600.4681,175.0068 598.0621,173.1298 C597.2991,172.6598 596.6681,172.0878 596.1701,171.4138 C595.6711,170.7388 595.4221,169.9028 595.4221,168.9058 C595.4221,168.4348 595.4791,167.9518 595.5981,167.4538 C595.7151,166.9548 596.0081,166.3818 596.4781,165.7378 L603.0791,156.1438 C603.7241,155.3808 604.3111,154.8098 604.8391,154.4278 C605.3671,154.0468 605.9531,153.8558 606.5991,153.8558 C607.0691,153.9138 607.6111,154.0318 608.2271,154.2088 C608.8441,154.3848 609.4731,154.7358 610.1191,155.2638 C611.5271,156.4968 613.2731,157.5378 615.3561,158.3888 C617.4381,159.2388 619.6091,159.9428 621.8691,160.5008 C624.1271,161.0578 626.3861,161.4538 628.6451,161.6898 C630.9031,161.9228 632.9141,162.0408 634.6741,162.0408 C639.0151,162.0408 643.1661,161.4828 647.1271,160.3688 C651.0881,159.2538 654.6081,157.6408 657.6881,155.5288 C660.7681,153.4158 663.2901,150.8638 665.2571,147.8718 C667.2211,144.8798 668.3811,141.5348 668.7331,137.8388" id="Fill-13"></path>
                    <path d="M702.1683,39.1814 C702.1683,37.4804 702.7413,36.1894 703.8893,35.3094 C705.0373,34.4294 706.2893,33.9894 707.6443,33.9894 L718.8593,33.9894 C720.3303,33.9894 721.4493,34.4294 722.2163,35.3094 C722.9803,36.1894 723.5693,37.2754 723.9813,38.5654 C724.3943,39.8564 724.6893,41.2494 724.8643,42.7464 C725.0403,44.2424 725.2473,45.6064 725.4833,46.8384 C726.7783,45.0204 728.2323,43.2444 729.8473,41.5134 C731.4593,39.7834 733.2923,38.2434 735.3473,36.8934 C737.4003,35.5444 739.7173,34.4594 742.2993,33.6374 C744.8813,32.8164 747.8143,32.4044 751.1003,32.4044 C754.0343,32.4044 756.6733,32.5964 759.0213,32.9774 C761.3673,33.3594 763.6113,33.9454 765.7533,34.7374 C767.8943,35.5294 769.9923,36.5564 772.0463,37.8174 C774.0993,39.0794 776.2993,40.5604 778.6473,42.2614 C779.6443,42.9084 780.5093,43.6404 781.2433,44.4624 C781.9763,45.2844 782.3433,46.2524 782.3433,47.3664 C782.2843,47.8364 782.1963,48.3344 782.0793,48.8624 C781.9613,49.3904 781.7273,49.9184 781.3753,50.4464 L774.1583,61.8874 C773.6883,62.4754 773.1463,62.8994 772.5303,63.1634 C771.9143,63.4274 771.3713,63.5604 770.9023,63.5604 C769.9633,63.5604 769.0543,63.3264 768.1733,62.8554 C766.2383,61.7994 764.4783,60.8024 762.8943,59.8634 C761.3093,58.9254 759.7543,58.1184 758.2293,57.4434 C756.7023,56.7694 755.1343,56.2414 753.5203,55.8594 C751.9063,55.4784 750.1023,55.2864 748.1083,55.2864 C742.8853,55.2864 738.4713,56.9594 734.8633,60.3034 C731.2553,63.6474 728.8353,68.2544 727.6023,74.1214 L727.6023,140.4794 C727.6023,143.9994 725.7763,145.7604 722.1263,145.7604 L707.6443,145.7604 C703.9923,145.7604 702.1683,143.9994 702.1683,140.4794 L702.1683,39.1814 Z" id="Fill-15"></path>
                    <path d="M801.3051,89.785 C801.3051,94.48 802.1271,98.924 803.7701,103.118 C805.4111,107.313 807.7001,110.995 810.6341,114.164 C813.5671,117.332 817.0151,119.84 820.9761,121.688 C824.9361,123.536 829.2621,124.46 833.9561,124.46 C838.7091,124.46 843.1531,123.536 847.2891,121.688 C851.4271,119.84 855.0191,117.332 858.0711,114.164 C861.1211,110.995 863.5281,107.313 865.2871,103.118 C867.0481,98.924 867.9281,94.48 867.9281,89.785 C867.9281,85.151 867.0481,80.735 865.2871,76.54 C863.5281,72.345 861.1211,68.663 858.0711,65.494 C855.0191,62.326 851.4271,59.804 847.2891,57.926 C843.1531,56.049 838.7091,55.11 833.9561,55.11 C829.2621,55.11 824.9361,56.049 820.9761,57.926 C817.0151,59.804 813.5671,62.326 810.6341,65.494 C807.7001,68.663 805.4111,72.345 803.7701,76.54 C802.1271,80.735 801.3051,85.151 801.3051,89.785 Z M892.8341,140.566 C892.8341,141.622 892.6141,142.488 892.1741,143.162 C891.7341,143.837 891.1621,144.366 890.4581,144.746 C889.7541,145.129 888.9461,145.392 888.0381,145.538 C887.1281,145.686 886.1751,145.758 885.1781,145.758 L874.1761,145.758 C872.2981,145.758 870.9931,145.261 870.2601,144.262 C869.5261,143.266 868.9841,142.004 868.6321,140.477 L868.1031,132.998 C866.0491,135.052 863.7771,136.973 861.2831,138.761 C858.7891,140.552 856.1051,142.106 853.2311,143.426 C850.3551,144.746 847.3041,145.772 844.0771,146.507 C840.8501,147.24 837.5341,147.607 834.1331,147.607 C828.8521,147.607 823.7621,146.916 818.8631,145.538 C813.9631,144.161 809.3721,142.225 805.0901,139.73 C800.8071,137.236 796.9191,134.229 793.4281,130.709 C789.9371,127.189 786.9451,123.287 784.4521,119.004 C781.9571,114.722 780.0211,110.115 778.6441,105.187 C777.2641,100.258 776.5751,95.125 776.5751,89.785 C776.5751,84.447 777.2641,79.312 778.6441,74.383 C780.0211,69.455 781.9571,64.85 784.4521,60.566 C786.9451,56.284 789.9371,52.396 793.4281,48.905 C796.9191,45.415 800.8071,42.422 805.0901,39.928 C809.3721,37.435 813.9631,35.499 818.8631,34.119 C823.7621,32.742 828.8521,32.051 834.1331,32.051 C837.8871,32.051 841.4661,32.447 844.8691,33.24 C848.2721,34.031 851.4551,35.147 854.4191,36.584 C857.3811,38.022 860.1241,39.752 862.6471,41.776 C865.1691,43.801 867.4571,46.016 869.5121,48.421 L870.7441,39.004 C871.0371,37.948 871.3161,37.083 871.5801,36.408 C871.8441,35.734 872.1661,35.191 872.5491,34.779 C872.9291,34.37 873.4131,34.09 874.0001,33.944 C874.5861,33.798 875.3201,33.723 876.2001,33.723 L885.0011,33.723 C885.9391,33.723 886.8791,33.811 887.8171,33.988 C888.7561,34.163 889.6071,34.442 890.3701,34.823 C891.1321,35.206 891.7341,35.734 892.1741,36.408 C892.6141,37.083 892.8341,37.919 892.8341,38.916 L892.8341,140.566 Z" id="Fill-17"></path>
                    <path d="M903.7813,35.0881 C905.2773,34.3551 907.1393,33.9881 909.3703,33.9881 L918.2593,33.9881 C919.9593,33.9881 921.2213,34.5481 922.0433,35.6671 C922.8643,36.7861 923.4213,38.0241 923.7153,39.3781 L924.6833,47.8621 C926.0323,45.8601 927.5883,43.9311 929.3473,42.0771 C931.1083,40.2211 933.2053,38.5881 935.6403,37.1741 C938.0743,35.7611 940.9213,34.6271 944.1783,33.7741 C947.4333,32.9191 951.2313,32.4921 955.5743,32.4921 C959.6813,32.4921 963.4073,32.8891 966.7513,33.6841 C970.0963,34.4791 973.1163,35.6571 975.8173,37.2181 C978.5143,38.7791 980.9503,40.6931 983.1213,42.9591 C985.2913,45.2271 987.2573,47.8331 989.0183,50.7771 C990.4263,48.0101 992.3313,45.4771 994.7383,43.1811 C997.1433,40.8841 999.9153,38.9271 1003.0553,37.3071 C1006.1933,35.6881 1009.6403,34.4361 1013.3963,33.5531 C1017.1503,32.6711 1021.0533,32.2281 1025.1013,32.2281 C1032.0243,32.2281 1038.1113,33.4901 1043.3633,36.0121 C1048.6133,38.5351 1053.0003,41.9971 1056.5203,46.3971 C1060.0403,50.7971 1062.6943,55.9321 1064.4853,61.7991 C1066.2743,67.6661 1067.1693,73.9441 1067.1693,80.6331 L1067.1693,139.3341 C1067.1693,141.4461 1066.6703,143.0451 1065.6723,144.1301 C1064.6753,145.2161 1063.2383,145.7581 1061.3603,145.7581 L1047.9833,145.7581 C1045.6363,145.7581 1044.0673,145.3201 1043.2753,144.4401 C1042.4833,143.5611 1042.0873,142.0071 1042.0873,139.7791 L1042.0873,80.6971 C1042.0873,77.5901 1041.6463,74.5721 1040.7673,71.6401 C1039.8873,68.7101 1038.5223,66.1171 1036.6743,63.8601 C1034.8263,61.6031 1032.5073,59.7871 1029.7213,58.4091 C1026.9343,57.0311 1023.6053,56.3421 1019.7323,56.3421 C1016.5053,56.3421 1013.5133,56.9141 1010.7563,58.0571 C1007.9973,59.2011 1005.6213,60.8411 1003.6273,62.9811 C1001.6313,65.1211 1000.0633,67.6991 998.9183,70.7181 C997.7743,73.7361 997.2023,77.0921 997.2023,80.7851 L997.2023,139.4291 C997.2023,143.6491 995.2953,145.7581 991.4823,145.7581 L978.0173,145.7581 C975.6693,145.7581 974.1143,145.3201 973.3523,144.4401 C972.5893,143.5611 972.2083,142.0071 972.2083,139.7791 L972.2083,80.7851 C972.2083,77.7381 971.7823,74.7621 970.9323,71.8611 C970.0803,68.9591 968.7613,66.3651 966.9713,64.0801 C965.1813,61.7951 962.8793,59.9471 960.0623,58.5411 C957.2463,57.1341 953.9023,56.4301 950.0303,56.4301 C947.3313,56.4301 944.6303,56.9431 941.9333,57.9691 C939.2343,58.9951 936.7853,60.4761 934.5843,62.4091 C932.3843,64.3441 930.5803,66.7171 929.1723,69.5311 C927.7643,72.3441 927.0303,75.5391 926.9723,79.1141 L926.9723,140.5711 C926.9723,142.0951 926.4723,143.3411 925.4763,144.3081 C924.4773,145.2751 923.2163,145.7581 921.6913,145.7581 L907.1703,145.7581 C905.2343,145.7581 903.8103,145.3041 902.9013,144.3951 C901.9903,143.4861 901.5373,142.1801 901.5373,140.4771 L901.5373,39.1801 C901.5373,37.1871 902.2853,35.8221 903.7813,35.0881" id="Fill-19"></path>
                </g>
                <g id="Group-34" transform="translate(358.000000, 0.000000)">
                    <path d="M251.2659,25.7799 C232.7939,27.1119 216.7789,33.7839 197.8419,29.2109 C142.6759,15.8899 94.6519,31.5999 58.0729,74.8129 C20.5959,119.0859 14.5749,169.6449 36.8509,223.1859 C39.3689,229.2389 39.8289,234.0699 37.4289,240.0509 C34.8459,246.4889 33.4449,253.4009 31.4649,260.3269 C-6.2171,213.7469 -17.2231,123.1139 41.6819,56.4929 C101.2969,-10.9301 194.7189,-11.9051 251.2659,25.7799" id="Fill-22"></path>
                    <path d="M306.9078,82.5428 C341.7838,137.5518 340.8288,225.6098 279.4118,284.5238 C217.2108,344.1908 127.6028,341.2438 72.8548,301.4798 C82.5418,298.4478 92.1178,296.6098 100.9678,292.6158 C103.4278,291.5058 105.4428,293.2928 107.5368,294.1878 C194.3048,331.2488 288.5328,280.1788 304.4978,187.2698 C307.8468,167.7818 306.7058,148.2878 301.2858,129.2788 C299.4888,122.9748 299.5738,117.2988 301.1298,111.0838 C303.3918,102.0438 304.8728,92.8088 306.9078,82.5428" id="Fill-24"></path>
                    <path d="M63.3873,288.4026 C46.6233,288.9306 43.3473,285.9376 44.2643,274.0636 C46.0143,251.4076 52.7943,230.7626 69.9763,214.7576 C71.7103,213.1426 73.6463,209.8816 76.3533,211.8706 C78.6443,213.5536 76.2223,216.1666 75.4143,218.2046 C69.8143,232.3236 66.9813,247.0616 64.9663,262.0486 C64.2913,267.0606 65.5563,268.6206 70.5413,267.9826 C85.5353,266.0646 100.2753,263.2396 114.3913,257.5836 C116.5063,256.7356 119.3723,253.7526 121.2613,256.8476 C122.8403,259.4336 119.5743,261.4176 117.9383,263.1556 C101.8563,280.2366 81.2093,286.7866 63.3873,288.4026" id="Fill-26"></path>
                    <path d="M107.3451,119.7897 C96.2771,136.5417 85.8271,152.5517 75.1741,168.4267 C65.8391,182.3377 65.7391,182.2707 53.7161,170.2467 C44.7291,161.2587 44.6921,161.2247 53.4761,151.9507 C63.7031,141.1547 74.8481,131.4927 88.3251,124.8997 C93.8721,122.1867 99.5351,119.6437 107.3451,119.7897" id="Fill-28"></path>
                    <path d="M212.6102,226.1475 C213.1342,233.0025 210.6872,238.2065 208.2972,243.3035 C200.5202,259.8945 188.1802,272.8415 174.7542,284.9325 C171.8642,287.5345 170.0322,286.8565 167.6172,284.4175 C162.1332,278.8775 156.4282,273.5555 150.1462,267.5015 C170.9522,253.0535 191.0782,239.1855 212.6102,226.1475" id="Fill-30"></path>
                    <path d="M207.0864,154.0139 C191.2024,153.9189 178.4164,140.9539 178.5394,125.0679 C178.6614,109.3749 191.9964,96.1769 207.5494,96.3539 C223.1944,96.5329 236.3054,109.9009 236.1564,125.5239 C236.0054,141.3639 223.0014,154.1089 207.0864,154.0139 M280.6994,37.5789 C264.5354,38.1659 248.5344,39.9729 232.6294,42.8819 C191.3544,50.4329 156.0444,67.8829 132.0724,103.8219 C113.8764,131.1029 97.0534,159.2849 78.1584,186.1099 C74.7964,190.8829 75.1204,195.2739 79.2634,199.4199 C97.3054,217.4719 115.3434,235.5289 133.3574,253.6099 C137.5074,257.7749 141.8864,258.1309 146.6494,254.7529 C173.2024,235.9209 201.2434,219.3419 228.1264,201.0269 C249.5994,186.3979 266.6124,167.6729 276.7124,143.2699 C287.8974,116.2479 292.7984,87.9259 294.4654,58.9119 C294.5824,56.5709 294.6904,54.2299 294.8164,51.8889 C295.4804,39.5229 292.9684,37.1329 280.6994,37.5789" id="Fill-32"></path>
                </g>
            </g>
        </g>
    </g>
</svg>