<?xml version="1.0" encoding="UTF-8"?>
<svg width="88px" height="95px" viewBox="0 0 88 95" version="1.1" xmlns="http://www.w3.org/2000/svg" xmlns:xlink="http://www.w3.org/1999/xlink">
    <!-- Generator: Sketch 52.4 (67378) - http://www.bohemiancoding.com/sketch -->
    <title>Group 7</title>
    <desc>Created with Sketch.</desc>
    <g id="desktop" stroke="none" stroke-width="1" fill="none" fill-rule="evenodd">
        <g id="home" transform="translate(-45.000000, -32.000000)">
            <g id="Group-7" transform="translate(45.000000, 32.000000)">
                <path d="M0.239260563,62.9011142 C1.27605634,58.9317549 2.10017606,55.597493 2.71161972,52.8983287 C3.32306338,50.2256267 4.09401408,46.6532033 4.99788732,42.2075209 C5.90176056,37.7618384 6.48661972,34.7980501 6.72588028,33.3690808 L7.04489437,31.3314763 C10.4742958,31.3579387 14.6214789,31.3844011 19.5130282,31.3844011 C24.0058099,31.3844011 27.9934859,31.3579387 31.4228873,31.3314763 L31.2633803,32.0988858 C31.2102113,32.2841226 31.0772887,32.9456825 30.8114437,34.1100279 L30.253169,36.6239554 C30.146831,37.1532033 30.040493,37.7089136 29.9341549,38.264624 C27.1427817,38.132312 24.8033451,38.0793872 22.8892606,38.0793872 C20.7890845,38.0793872 19.3801056,38.0793872 18.6357394,38.0793872 C17.8913732,38.0793872 16.7482394,38.132312 15.1797535,38.1852368 L14.0366197,43.5041783 C15.7380282,43.5571031 17.7584507,43.5835655 20.0447183,43.5835655 C20.868838,43.5835655 23.0487676,43.5306407 26.584507,43.4247911 C26.1059859,45.4094708 25.5742958,47.7381616 24.9894366,50.4902507 C22.4639085,50.4637883 20.5498239,50.4373259 19.1940141,50.4373259 C17.1735915,50.4373259 14.9139085,50.4902507 12.4149648,50.5961003 L11.218662,56.2061281 L13.7176056,56.2061281 C14.4619718,56.2061281 16.0038732,56.1796657 18.3433099,56.1267409 L22.8892606,56.0208914 C23.5538732,55.994429 24.697007,55.9415042 26.2920775,55.8356546 C25.7338028,58.1114206 25.2021127,60.4665738 24.6704225,62.9011142 C21.1080986,62.8746518 17.2267606,62.8481894 12.9732394,62.8481894 L3.34964789,62.8746518 L0.239260563,62.9011142 Z" id="Path" fill="#E5231E"></path>
                <path d="M29.5619718,62.9011142 C30.5455986,59.2493036 31.2899648,56.2855153 31.8482394,53.9832869 C32.8584507,49.775766 33.7889085,45.6211699 34.6130282,41.4930362 C35.4637324,37.3649025 36.1017606,33.9512535 36.5271127,31.3314763 C38.4943662,31.3579387 40.2489437,31.3844011 41.7908451,31.3844011 C42.8276408,31.3844011 44.3163732,31.3579387 46.2570423,31.3314763 L44.3429577,39.6935933 L41.471831,52.7924791 L40.8603873,56.0208914 C43.359331,56.0738162 44.9809859,56.1002786 45.7519366,56.1002786 C49.5801056,56.1002786 52.5044014,56.0473538 54.4716549,55.9415042 L52.8234155,62.9275766 C48.9952465,62.9011142 45.353169,62.8746518 41.8705986,62.8746518 C37.1917254,62.8481894 33.0711268,62.8746518 29.5619718,62.9011142" id="Path" fill="#E5231E"></path>
                <path d="M83.103169,55.2005571 C82.7841549,56.1002786 82.3588028,57.3704735 81.8271127,58.9846797 C81.2954225,60.5988858 80.9232394,61.8690808 80.6839789,62.7423398 C77.493838,63.2451253 74.6492958,63.4832869 72.2035211,63.4832869 C69.8375,63.4832869 67.7107394,63.1657382 65.7700704,62.5571031 C63.8294014,61.9220056 62.1545775,60.9164345 60.6924296,59.4874652 C59.2302817,58.0584958 58.2998239,56.3913649 57.9010563,54.45961 C57.5022887,52.5278552 57.4757042,50.3844011 57.8744718,47.9763231 C58.3264085,45.1977716 59.2568662,42.683844 60.6126761,40.4345404 C61.9684859,38.2116992 63.6964789,36.3593315 65.7700704,34.8509749 C67.8702465,33.3690808 70.0501761,32.310585 72.3630282,31.6490251 C74.6758803,31.0139276 76.9887324,30.6963788 79.3547535,30.6963788 C81.5080986,30.6963788 84.1399648,30.9874652 87.1971831,31.5696379 L86.9047535,33.5013928 C86.7984155,34.3481894 86.6920775,35.2743733 86.5591549,36.3064067 L86.2667254,38.9526462 C84.6450704,38.5292479 83.2892606,38.2381616 82.2790493,38.0793872 C81.2422535,37.9206128 80.2852113,37.8412256 79.381338,37.8412256 C77.4140845,37.8412256 75.5797535,38.264624 73.8517606,39.0849582 C72.1503521,39.9052925 70.6882042,41.1225627 69.5184859,42.7103064 C68.3487676,44.2980501 67.6044014,46.0445682 67.2853873,47.9763231 C66.9929577,49.7228412 67.1258803,51.2311978 67.6575704,52.5013928 C68.2158451,53.7715877 69.0665493,54.724234 70.2362676,55.4122563 C71.4059859,56.1002786 72.9478873,56.4442897 74.8353873,56.4442897 C75.8721831,56.4442897 77.0153169,56.3649025 78.2647887,56.1796657 C79.5940141,56.0473538 81.1890845,55.7033426 83.103169,55.2005571" id="Path" fill="#E5231E"></path>
                <path d="M46.4963028,94.7618384 C33.7357394,94.7618384 21.7727113,88.1197772 14.5151408,76.9791086 C13.6112676,75.6030641 13.9302817,73.6977716 15.259507,72.718663 C16.5621479,71.7660167 18.3698944,72.1100279 19.2737676,73.5125348 C25.4413732,82.9860724 35.6232394,88.6490251 46.4963028,88.6490251 C48.0913732,88.6490251 49.3940141,90.0250696 49.3940141,91.6922006 C49.3940141,93.3857939 48.0913732,94.7618384 46.4963028,94.7618384" id="Path" fill="#00447B"></path>
                <path d="M73.0542254,21.5933148 C72.1769366,21.5933148 71.2996479,21.1699164 70.7413732,20.3495822 C64.2547535,11.0877437 53.9133803,5.79526462 43.0403169,6.19220056 C41.471831,6.24512535 40.1160211,4.92200557 40.0628521,3.25487465 C40.0096831,1.56128134 41.2591549,0.158774373 42.8542254,0.105849582 C55.6147887,-0.344011142 67.7639085,5.87465181 75.393662,16.7506964 C76.3507042,18.1002786 76.0848592,20.005571 74.7822183,21.0111421 C74.2505282,21.3816156 73.665669,21.5933148 73.0542254,21.5933148" id="Path" fill="#00447B"></path>
                <path d="M47.7191901,86.2674095 C45.3797535,86.2674095 43.0137324,86.0557103 40.6742958,85.5793872 C39.1058099,85.2618384 38.0690141,83.6740947 38.3614437,82.0334262 C38.6538732,80.3662953 40.1426056,79.281337 41.7110915,79.5724234 C52.4246479,81.6629526 63.4040493,78.0376045 71.0869718,69.913649 C72.2035211,68.7228412 74.0378521,68.7228412 75.1544014,69.913649 C76.2709507,71.1044568 76.2709507,73.0362117 75.1544014,74.2270195 C67.843662,82.0069638 57.9276408,86.2674095 47.7191901,86.2674095" id="Path" fill="#00447B"></path>
                <path d="M16.881162,26.1183844 C16.1367958,26.1183844 15.3924296,25.8272981 14.8341549,25.218663 C13.7176056,24.0278552 13.7176056,22.0961003 14.8341549,20.9052925 C23.8728873,11.3523677 36.7663732,7.1183844 49.3408451,9.55292479 C50.909331,9.87047354 51.9461268,11.4582173 51.6536972,13.0988858 C51.3612676,14.7660167 49.8725352,15.8509749 48.3040493,15.5598886 C37.590493,13.4693593 26.6110915,17.0947075 18.928169,25.218663 C18.3698944,25.8272981 17.6255282,26.1183844 16.881162,26.1183844" id="Path" fill="#00447B"></path>
            </g>
        </g>
    </g>
</svg>