<?xml version="1.0" encoding="UTF-8"?>
<svg width="151px" height="95px" viewBox="0 0 151 95" version="1.1" xmlns="http://www.w3.org/2000/svg" xmlns:xlink="http://www.w3.org/1999/xlink">
    <!-- Generator: Sketch 52.4 (67378) - http://www.bohemiancoding.com/sketch -->
    <title>elc_OK copy</title>
    <desc>Created with Sketch.</desc>
    <g id="desktop" stroke="none" stroke-width="1" fill="none" fill-rule="evenodd">
        <g id="home" transform="translate(-45.000000, -32.000000)">
            <g id="elc_OK-copy" transform="translate(45.000000, 32.000000)">
                <path d="M93.6838028,44.3245125 C93.7635563,43.9275766 93.8167254,43.6364903 93.8433099,43.4247911 L93.8698944,43.2395543 C94.1889085,43.2395543 94.4547535,43.2395543 94.6408451,43.2395543 C94.9066901,43.2395543 95.1725352,43.2395543 95.4117958,43.2395543 C95.3852113,43.3454039 95.3586268,43.4512535 95.3320423,43.5571031 L95.1725352,44.3245125 C94.9066901,44.3245125 94.6674296,44.3245125 94.4547535,44.3245125 C94.2420775,44.3245125 93.9762324,44.3245125 93.6838028,44.3245125 M92.3014085,51.1518106 C92.434331,50.5696379 92.5672535,50.0933148 92.647007,49.7228412 C92.7799296,49.1142061 92.9128521,48.3997214 93.0723592,47.6058496 C93.2318662,46.8119777 93.3647887,46.0445682 93.4977113,45.3300836 C93.8433099,45.3300836 94.0825704,45.3300836 94.268662,45.3300836 C94.428169,45.3300836 94.6674296,45.3300836 95.0396127,45.3300836 C94.8801056,45.9916435 94.7471831,46.6267409 94.6142606,47.235376 C94.481338,47.8440111 94.3484155,48.5320334 94.215493,49.2994429 C94.0825704,50.0668524 93.9762324,50.7019499 93.8964789,51.1518106 C93.5774648,51.1518106 93.3382042,51.1518106 93.1255282,51.1518106 C92.9394366,51.1518106 92.647007,51.1518106 92.3014085,51.1518106" id="Shape" fill="#00447B" fill-rule="nonzero"></path>
                <path d="M100.010915,46.362117 C99.7716549,46.2827298 99.5058099,46.2562674 99.2665493,46.2562674 C99.0007042,46.2562674 98.7348592,46.3091922 98.4690141,46.3885794 C98.203169,46.4679666 97.9639085,46.6267409 97.7246479,46.8119777 C97.5119718,47.0236769 97.2992958,47.2618384 97.1397887,47.5793872 C96.9802817,47.8969359 96.8739437,48.2144847 96.8473592,48.505571 C96.7941901,48.7966574 96.7941901,49.0612813 96.8739437,49.3259053 C96.9271127,49.5640669 97.0600352,49.775766 97.2195423,49.908078 C97.4056338,50.04039 97.6183099,50.1197772 97.8575704,50.1197772 C98.043662,50.1197772 98.2297535,50.0933148 98.3892606,50.0139276 C98.5487676,49.9345404 98.7082746,49.8286908 98.8677817,49.6699164 C99.0272887,49.5111421 99.1602113,49.3259053 99.2931338,49.0612813 C99.4260563,48.8231198 99.5323944,48.4791086 99.6387324,48.0821727 C99.7450704,47.7910864 99.8514085,47.2089136 100.010915,46.362117 M100.542606,51.1518106 C100.250176,51.1518106 100.0375,51.1518106 99.877993,51.1518106 C99.6919014,51.1518106 99.4526408,51.1518106 99.1602113,51.1518106 L99.3728873,50.1462396 C99.1867958,50.3579387 99.0272887,50.5431755 98.8943662,50.6490251 C98.7614437,50.7548747 98.6019366,50.8871866 98.4424296,50.9665738 C98.256338,51.0724234 98.0702465,51.1518106 97.8841549,51.2047354 C97.6980634,51.2576602 97.4853873,51.2841226 97.2992958,51.2841226 C96.9536972,51.2841226 96.6612676,51.2047354 96.3954225,51.0724234 C96.1295775,50.9401114 95.9169014,50.7548747 95.7308099,50.5167131 C95.5713028,50.2785515 95.4649648,49.9874652 95.4117958,49.643454 C95.3586268,49.2994429 95.3852113,48.9554318 95.4383803,48.5849582 C95.5181338,48.0821727 95.6776408,47.6058496 95.9434859,47.1295265 C96.1827465,46.6532033 96.5017606,46.2562674 96.8473592,45.9651811 C97.1929577,45.6740947 97.5651408,45.4623955 97.9639085,45.3300836 C98.3626761,45.1977716 98.7880282,45.1448468 99.2133803,45.1448468 C99.5323944,45.1448468 99.877993,45.1713092 100.276761,45.2506964 C100.383099,44.7479109 100.489437,44.218663 100.56919,43.689415 L100.622359,43.2924791 C100.941373,43.2924791 101.207218,43.2924791 101.366725,43.2924791 C101.605986,43.2924791 101.845246,43.2924791 102.137676,43.2924791 C101.898415,44.2715877 101.63257,45.5947075 101.286972,47.2618384 C100.914789,48.9554318 100.675528,50.2520891 100.542606,51.1518106" id="Shape" fill="#00447B" fill-rule="nonzero"></path>
                <path d="M103.201056,44.3245125 C103.28081,43.9275766 103.333979,43.6364903 103.360563,43.4247911 L103.387148,43.2395543 C103.706162,43.2395543 103.972007,43.2395543 104.158099,43.2395543 C104.423944,43.2395543 104.689789,43.2395543 104.929049,43.2395543 C104.902465,43.3454039 104.87588,43.4512535 104.849296,43.5571031 L104.689789,44.3245125 C104.423944,44.3245125 104.184683,44.3245125 103.972007,44.3245125 C103.759331,44.2980501 103.493486,44.3245125 103.201056,44.3245125 M101.818662,51.1518106 C101.951585,50.5696379 102.084507,50.0933148 102.164261,49.7228412 C102.297183,49.1142061 102.430106,48.3997214 102.589613,47.6058496 C102.74912,46.8119777 102.882042,46.0445682 103.014965,45.3300836 C103.360563,45.3300836 103.599824,45.3300836 103.785915,45.3300836 C103.945423,45.3300836 104.184683,45.3300836 104.556866,45.3300836 C104.397359,45.9916435 104.264437,46.6267409 104.131514,47.235376 C103.998592,47.8440111 103.865669,48.5320334 103.732746,49.2994429 C103.599824,50.0668524 103.493486,50.7019499 103.413732,51.1518106 C103.094718,51.1518106 102.855458,51.1518106 102.642782,51.1518106 C102.45669,51.1518106 102.190845,51.1518106 101.818662,51.1518106" id="Shape" fill="#00447B" fill-rule="nonzero"></path>
                <path d="M108.305282,46.362117 C108.012852,46.362117 107.720423,46.4415042 107.454577,46.6002786 C107.188732,46.7590529 106.976056,46.9972145 106.816549,47.3147632 C106.657042,47.632312 106.52412,47.9763231 106.470951,48.3732591 C106.417782,48.7172702 106.417782,49.0083565 106.470951,49.2729805 C106.52412,49.5376045 106.657042,49.7493036 106.843134,49.908078 C107.029225,50.0668524 107.268486,50.1462396 107.5875,50.1462396 C107.87993,50.1462396 108.172359,50.0668524 108.438204,49.908078 C108.704049,49.7493036 108.916725,49.4846797 109.076232,49.1671309 C109.235739,48.8495822 109.368662,48.4791086 109.421831,48.1086351 C109.475,47.7910864 109.475,47.5 109.421831,47.235376 C109.368662,46.9707521 109.262324,46.7590529 109.076232,46.6002786 C108.836972,46.4415042 108.597711,46.362117 108.305282,46.362117 M108.491373,45.1713092 C108.890141,45.1713092 109.262324,45.2506964 109.607923,45.356546 C109.953521,45.4888579 110.245951,45.6740947 110.458627,45.9387187 C110.671303,46.2033426 110.804225,46.5208914 110.883979,46.8913649 C110.963732,47.2618384 110.963732,47.6587744 110.883979,48.0821727 C110.804225,48.505571 110.671303,48.9289694 110.485211,49.3523677 C110.272535,49.7493036 110.033275,50.1197772 109.714261,50.4108635 C109.421831,50.7019499 109.049648,50.9401114 108.65088,51.0724234 C108.252113,51.2311978 107.826761,51.2841226 107.374824,51.2841226 C106.976056,51.2841226 106.603873,51.2311978 106.258275,51.0988858 C105.912676,50.9665738 105.646831,50.781337 105.434155,50.5167131 C105.221479,50.2520891 105.061972,49.9345404 105.008803,49.5640669 C104.929049,49.1935933 104.929049,48.7966574 105.008803,48.3732591 C105.088556,47.9498607 105.194894,47.5529248 105.380986,47.1559889 C105.567077,46.7855153 105.806338,46.4415042 106.125352,46.1239554 C106.444366,45.8328691 106.789965,45.5947075 107.241901,45.4359331 C107.614085,45.2771588 108.066021,45.1713092 108.491373,45.1713092" id="Shape" fill="#00447B" fill-rule="nonzero"></path>
                <path d="M111.282746,51.1518106 C111.442254,50.4902507 111.65493,49.5376045 111.89419,48.2409471 C112.160035,46.9442897 112.346127,45.9651811 112.452465,45.3300836 C112.744894,45.3300836 112.984155,45.3300836 113.170246,45.3300836 C113.382923,45.3300836 113.622183,45.3300836 113.861444,45.3300836 L113.675352,46.2562674 C113.808275,46.0710306 113.941197,45.9387187 114.047535,45.8064067 C114.153873,45.7005571 114.286796,45.5947075 114.446303,45.4888579 C114.60581,45.3830084 114.791901,45.3300836 115.004577,45.2506964 C115.217254,45.1977716 115.42993,45.1713092 115.616021,45.1713092 C115.775528,45.1713092 115.908451,45.1977716 116.067958,45.224234 C116.20088,45.2506964 116.333803,45.3036212 116.440141,45.356546 C116.546479,45.4094708 116.652817,45.4888579 116.705986,45.5682451 C116.785739,45.6476323 116.838908,45.7270195 116.892077,45.8328691 C116.945246,45.9387187 116.971831,46.0710306 117.025,46.2562674 C117.131338,46.1239554 117.211092,46.0181058 117.290845,45.9122563 C117.370599,45.8328691 117.476937,45.7270195 117.583275,45.6211699 C117.716197,45.5153203 117.84912,45.4359331 117.982042,45.3830084 C118.114965,45.3300836 118.274472,45.2771588 118.460563,45.224234 C118.62007,45.1977716 118.806162,45.1713092 118.992254,45.1713092 C119.284683,45.1713092 119.577113,45.224234 119.816373,45.3300836 C120.055634,45.4359331 120.241725,45.6211699 120.374648,45.8593315 C120.480986,46.097493 120.50757,46.3885794 120.454401,46.7325905 C120.427817,46.9178273 120.374648,47.1824513 120.294894,47.5529248 C120.215141,47.8969359 120.082218,48.4791086 119.922711,49.2994429 C119.763204,50.0933148 119.630282,50.7284123 119.577113,51.178273 C119.311268,51.178273 119.098592,51.178273 118.9125,51.178273 C118.673239,51.178273 118.407394,51.178273 118.08838,51.178273 C118.194718,50.6754875 118.301056,50.1727019 118.433979,49.6169916 L118.699824,48.2938719 C118.779577,47.9498607 118.832746,47.6852368 118.859331,47.4470752 C118.9125,47.1824513 118.885915,46.9707521 118.832746,46.8384401 C118.779577,46.7061281 118.699824,46.6002786 118.593486,46.5473538 C118.487148,46.494429 118.354225,46.4679666 118.194718,46.4679666 C118.035211,46.4679666 117.902289,46.494429 117.742782,46.5738162 C117.609859,46.6267409 117.476937,46.7325905 117.344014,46.8913649 C117.211092,47.0501393 117.104754,47.2089136 116.998415,47.3941504 C116.918662,47.5793872 116.812324,47.8704735 116.73257,48.2144847 C116.652817,48.5584958 116.546479,49.0348189 116.440141,49.5905292 L116.147711,51.178273 C115.855282,51.178273 115.616021,51.178273 115.42993,51.178273 C115.243838,51.178273 114.977993,51.178273 114.658979,51.178273 C114.738732,50.8871866 114.871655,50.2785515 115.057746,49.3788301 C115.243838,48.4791086 115.376761,47.8440111 115.42993,47.5264624 C115.456514,47.367688 115.456514,47.2089136 115.456514,47.1030641 C115.456514,46.9972145 115.42993,46.8649025 115.350176,46.7590529 C115.297007,46.6532033 115.217254,46.5738162 115.110915,46.5208914 C115.004577,46.4679666 114.898239,46.4415042 114.765317,46.4415042 C114.526056,46.4415042 114.286796,46.5208914 114.07412,46.7061281 C113.861444,46.8913649 113.701937,47.1295265 113.569014,47.4206128 C113.436092,47.7116992 113.276585,48.2938719 113.117077,49.1406685 C112.930986,49.9874652 112.824648,50.6754875 112.744894,51.178273 C112.42588,51.178273 112.18662,51.178273 112.027113,51.178273 C111.867606,51.1518106 111.601761,51.1518106 111.282746,51.1518106" id="Path" fill="#00447B"></path>
                <path d="M121.969718,46.6002786 C122.076056,46.3356546 122.129225,46.1239554 122.15581,46.0181058 C122.182394,45.9122563 122.235563,45.7270195 122.315317,45.5153203 C122.820423,45.3830084 123.245775,45.3036212 123.617958,45.2506964 C123.990141,45.1977716 124.335739,45.1713092 124.681338,45.1713092 C125.053521,45.1713092 125.39912,45.224234 125.718134,45.3300836 C126.010563,45.4359331 126.249824,45.5947075 126.382746,45.8064067 C126.542254,46.0181058 126.568838,46.3356546 126.515669,46.7325905 C126.489085,46.9442897 126.356162,47.5 126.17007,48.3997214 C125.983979,49.2994429 125.797887,50.2256267 125.63838,51.178273 C125.372535,51.178273 125.133275,51.178273 124.920599,51.178273 C124.707923,51.178273 124.468662,51.178273 124.176232,51.178273 C124.309155,50.7284123 124.415493,50.1727019 124.548415,49.5640669 L124.840845,48.1350975 C124.681338,48.2409471 124.575,48.2938719 124.495246,48.3467967 C124.415493,48.3732591 124.335739,48.4261838 124.229401,48.4526462 C124.149648,48.4791086 123.963556,48.5320334 123.75088,48.6114206 C123.51162,48.6908078 123.325528,48.7437326 123.192606,48.7966574 C123.059683,48.8495822 122.926761,48.902507 122.820423,48.9554318 C122.714085,49.0083565 122.607746,49.0877437 122.527993,49.1671309 C122.448239,49.2465181 122.368486,49.3259053 122.341901,49.4052925 C122.288732,49.4846797 122.262148,49.5905292 122.235563,49.6963788 C122.208979,49.8551532 122.235563,49.9874652 122.288732,50.1197772 C122.368486,50.2256267 122.448239,50.3050139 122.581162,50.3579387 C122.714085,50.4108635 122.847007,50.4373259 123.033099,50.4373259 C123.139437,50.4373259 123.272359,50.4373259 123.378697,50.4108635 C123.51162,50.3844011 123.671127,50.3314763 123.910387,50.2785515 C123.804049,50.4902507 123.671127,50.8342618 123.51162,51.2576602 C123.245775,51.310585 123.059683,51.3370474 122.900176,51.3370474 C122.740669,51.3370474 122.607746,51.3635097 122.501408,51.3635097 C122.076056,51.3635097 121.703873,51.310585 121.464613,51.178273 C121.198768,51.045961 121.039261,50.8342618 120.932923,50.5696379 C120.853169,50.2785515 120.826585,50.0139276 120.879754,49.7228412 C120.906338,49.5640669 120.959507,49.4052925 121.039261,49.2465181 C121.119014,49.0877437 121.225352,48.9289694 121.33169,48.7966574 C121.464613,48.6643454 121.597535,48.5320334 121.783627,48.3997214 C121.969718,48.2674095 122.208979,48.1615599 122.527993,48.0292479 C122.847007,47.9233983 123.272359,47.7910864 123.777465,47.6852368 C123.910387,47.6587744 124.069894,47.6058496 124.202817,47.5793872 C124.362324,47.5264624 124.468662,47.5 124.575,47.4470752 C124.654754,47.3941504 124.761092,47.3412256 124.814261,47.2883008 C124.894014,47.2089136 124.947183,47.1559889 124.973768,47.0766017 C125.026937,46.9972145 125.053521,46.9178273 125.053521,46.8649025 C125.080106,46.7061281 125.053521,46.6002786 124.973768,46.494429 C124.894014,46.3885794 124.787676,46.3091922 124.654754,46.2827298 C124.521831,46.229805 124.362324,46.229805 124.202817,46.229805 C123.51162,46.097493 122.767254,46.2562674 121.969718,46.6002786" id="Path" fill="#00447B"></path>
                <path d="M126.75493,51.045961 L126.834683,49.775766 C127.153697,49.9345404 127.419542,50.04039 127.658803,50.0933148 C127.898063,50.1462396 128.110739,50.1727019 128.296831,50.1727019 C128.482923,50.1727019 128.669014,50.1462396 128.801937,50.0933148 C128.934859,50.04039 129.067782,49.9610028 129.147535,49.8551532 C129.227289,49.7493036 129.280458,49.643454 129.307042,49.5376045 C129.307042,49.4846797 129.307042,49.4317549 129.307042,49.4052925 C129.307042,49.3523677 129.307042,49.3259053 129.280458,49.2729805 C129.253873,49.2200557 129.253873,49.1935933 129.227289,49.1406685 C129.200704,49.0877437 129.17412,49.0612813 129.120951,49.0083565 C129.067782,48.9554318 129.014613,48.902507 128.934859,48.8231198 L128.695599,48.5849582 C128.456338,48.3467967 128.296831,48.1615599 128.163908,48.0292479 C128.030986,47.8969359 127.951232,47.764624 127.871479,47.632312 C127.791725,47.5 127.738556,47.3412256 127.711972,47.1824513 C127.685387,47.0236769 127.685387,46.8649025 127.711972,46.7061281 C127.765141,46.4150418 127.871479,46.1504178 128.084155,45.9122563 C128.270246,45.6476323 128.536092,45.4888579 128.855106,45.356546 C129.17412,45.2506964 129.519718,45.1713092 129.918486,45.1713092 C130.370423,45.1713092 130.902113,45.224234 131.460387,45.356546 L131.327465,46.5473538 C130.955282,46.362117 130.583099,46.2827298 130.210915,46.2827298 C129.998239,46.2827298 129.838732,46.3091922 129.679225,46.362117 C129.519718,46.4150418 129.41338,46.4679666 129.333627,46.5738162 C129.253873,46.6532033 129.200704,46.7590529 129.17412,46.8649025 C129.17412,46.9178273 129.17412,46.9972145 129.17412,47.0501393 C129.17412,47.1030641 129.200704,47.1824513 129.253873,47.235376 C129.307042,47.3147632 129.333627,47.367688 129.41338,47.4206128 C129.466549,47.4735376 129.599472,47.6058496 129.785563,47.7910864 C129.971655,47.9763231 130.131162,48.1350975 130.264085,48.2674095 C130.397007,48.4261838 130.503345,48.5584958 130.583099,48.7172702 C130.662852,48.8760446 130.716021,49.0348189 130.742606,49.1935933 C130.76919,49.3523677 130.76919,49.5376045 130.742606,49.6963788 C130.689437,49.9874652 130.583099,50.2520891 130.370423,50.4902507 C130.157746,50.7284123 129.891901,50.913649 129.546303,51.0724234 C129.200704,51.2047354 128.828521,51.2841226 128.429754,51.2841226 C128.217077,51.2841226 127.977817,51.2576602 127.685387,51.2311978 C127.392958,51.2047354 127.100528,51.1253482 126.75493,51.045961" id="Path" fill="#00447B"></path>
                <path d="M136.19243,47.5264624 L138.638204,47.5264624 C138.664789,47.3412256 138.691373,47.2089136 138.691373,47.1295265 C138.691373,47.0501393 138.691373,46.9442897 138.664789,46.8384401 C138.638204,46.7325905 138.61162,46.6267409 138.558451,46.5473538 C138.505282,46.4679666 138.452113,46.3885794 138.372359,46.3356546 C138.292606,46.2827298 138.212852,46.229805 138.106514,46.2033426 C138.000176,46.1768802 137.893838,46.1504178 137.760915,46.1504178 C137.627993,46.1504178 137.468486,46.1768802 137.335563,46.229805 C137.202641,46.2827298 137.043134,46.362117 136.910211,46.4415042 C136.777289,46.5473538 136.670951,46.6532033 136.591197,46.7590529 C136.511444,46.8649025 136.43169,46.9972145 136.378521,47.1030641 C136.325352,47.2089136 136.245599,47.3412256 136.19243,47.5264624 M139.196479,49.8551532 C139.116725,50.0933148 138.983803,50.4902507 138.797711,51.0724234 C138.398944,51.1518106 138.07993,51.2311978 137.814085,51.2576602 C137.548239,51.2841226 137.282394,51.310585 137.016549,51.310585 C136.564613,51.310585 136.165845,51.2576602 135.820246,51.1518106 C135.474648,51.045961 135.182218,50.8607242 134.969542,50.5961003 C134.730282,50.3314763 134.597359,50.0139276 134.517606,49.6169916 C134.437852,49.2200557 134.437852,48.8231198 134.517606,48.3997214 C134.597359,47.9233983 134.730282,47.4735376 134.969542,47.0236769 C135.182218,46.5738162 135.448063,46.229805 135.767077,45.9387187 C136.086092,45.6476323 136.43169,45.4623955 136.777289,45.3300836 C137.122887,45.1977716 137.521655,45.1448468 137.893838,45.1448468 C138.239437,45.1448468 138.585035,45.1977716 138.877465,45.3036212 C139.169894,45.4094708 139.435739,45.5682451 139.595246,45.7799443 C139.781338,45.9916435 139.914261,46.2562674 139.96743,46.5738162 C140.020599,46.8913649 140.047183,47.235376 139.96743,47.6058496 C139.940845,47.7910864 139.887676,47.9763231 139.834507,48.1615599 L136.006338,48.1615599 C135.979754,48.2938719 135.953169,48.4261838 135.953169,48.505571 C135.9,48.770195 135.926585,49.0083565 135.953169,49.2200557 C136.006338,49.4317549 136.086092,49.6169916 136.219014,49.775766 C136.351937,49.9345404 136.511444,50.04039 136.72412,50.0933148 C136.936796,50.1727019 137.122887,50.1991643 137.335563,50.1991643 C137.574824,50.1991643 137.840669,50.1727019 138.133099,50.1197772 C138.425528,50.0933148 138.771127,49.9874652 139.196479,49.8551532" id="Shape" fill="#00447B" fill-rule="nonzero"></path>
                <path d="M91.7963028,56.0473538 C91.8760563,55.6504178 91.9292254,55.3593315 91.9558099,55.1476323 L91.9823944,54.9623955 C92.3014085,54.9623955 92.5672535,54.9623955 92.7533451,54.9623955 C93.0191901,54.9623955 93.2850352,54.9623955 93.5242958,54.9623955 C93.4977113,55.0682451 93.4711268,55.1740947 93.4445423,55.2799443 L93.2850352,56.0473538 C93.0191901,56.0473538 92.7799296,56.0473538 92.5672535,56.0473538 C92.3545775,56.0473538 92.0887324,56.0473538 91.7963028,56.0473538 M90.4139085,62.8746518 C90.546831,62.2924791 90.6797535,61.816156 90.759507,61.4456825 C90.8924296,60.8370474 91.0253521,60.1225627 91.1848592,59.3286908 C91.3443662,58.5348189 91.4772887,57.7674095 91.6102113,57.0529248 C91.9558099,57.0529248 92.1950704,57.0529248 92.381162,57.0529248 C92.540669,57.0529248 92.7799296,57.0529248 93.1521127,57.0529248 C92.9926056,57.7144847 92.8596831,58.3495822 92.7267606,58.9582173 C92.593838,59.5668524 92.4609155,60.2548747 92.327993,61.0222841 C92.1950704,61.7896936 92.0887324,62.4247911 92.0089789,62.8746518 C91.6899648,62.8746518 91.4507042,62.8746518 91.2380282,62.8746518 C91.0519366,62.8746518 90.7860915,62.8746518 90.4139085,62.8746518" id="Shape" fill="#00447B" fill-rule="nonzero"></path>
                <path d="M93.2318662,62.8746518 C93.4445423,62.0013928 93.6838028,61.0222841 93.8964789,59.9373259 C94.1357394,58.8523677 94.321831,57.8732591 94.4547535,57.0264624 C94.7737676,57.0264624 95.0396127,57.0264624 95.2257042,57.0264624 C95.4649648,57.0264624 95.7042254,57.0264624 95.9434859,57.0264624 L95.7308099,58.005571 C95.8637324,57.8467967 95.9700704,57.7144847 96.0764085,57.6086351 C96.1827465,57.5027855 96.2890845,57.4233983 96.4485915,57.3175487 C96.5815141,57.2116992 96.7410211,57.132312 96.9005282,57.0793872 C97.0600352,57.0264624 97.2195423,56.9735376 97.4056338,56.9470752 C97.5917254,56.9206128 97.7778169,56.8941504 97.9639085,56.8941504 C98.2829225,56.8941504 98.5753521,56.9470752 98.8411972,57.0264624 C99.1070423,57.1058496 99.3197183,57.2381616 99.4526408,57.4498607 C99.5855634,57.6350975 99.6653169,57.8467967 99.6919014,58.0584958 C99.7184859,58.270195 99.6919014,58.5083565 99.6653169,58.7729805 C99.6387324,58.8788301 99.6121479,59.0376045 99.5589789,59.275766 L99.0538732,61.7896936 C98.9741197,62.1337047 98.9209507,62.5041783 98.8411972,62.9011142 C98.5753521,62.9011142 98.3360915,62.9011142 98.15,62.9011142 C97.8841549,62.9011142 97.6183099,62.9011142 97.3524648,62.9011142 C97.4322183,62.5571031 97.5651408,62.0013928 97.7246479,61.1545961 C97.9107394,60.3342618 98.0170775,59.7785515 98.043662,59.5139276 C98.096831,59.2228412 98.096831,58.9582173 98.0170775,58.7729805 C97.9639085,58.5877437 97.8575704,58.4554318 97.6714789,58.3495822 C97.5119718,58.2437326 97.3258803,58.2172702 97.1132042,58.2172702 C96.9005282,58.2172702 96.7144366,58.270195 96.5017606,58.3495822 C96.315669,58.4289694 96.1295775,58.5612813 95.9700704,58.7465181 C95.8105634,58.9317549 95.6510563,59.143454 95.5447183,59.3816156 C95.4117958,59.6462396 95.2788732,60.0961003 95.1459507,60.7047354 C95.0130282,61.2604457 94.8801056,61.9749304 94.7205986,62.9011142 C94.4547535,62.9011142 94.215493,62.9011142 94.0028169,62.9011142 C93.8167254,62.8746518 93.5242958,62.8746518 93.2318662,62.8746518" id="Path" fill="#00447B"></path>
                <path d="M103.546655,61.683844 C103.466901,61.8955432 103.333979,62.2924791 103.147887,62.8481894 C102.855458,62.9275766 102.616197,62.954039 102.430106,62.9805014 C102.270599,63.0069638 102.111092,63.0069638 101.951585,63.0069638 C101.685739,63.0069638 101.473063,62.9805014 101.260387,62.9275766 C101.074296,62.8746518 100.914789,62.7688022 100.808451,62.6364903 C100.702113,62.5041783 100.622359,62.3454039 100.622359,62.1601671 C100.595775,61.9749304 100.622359,61.7896936 100.648944,61.6044568 C100.648944,61.551532 100.675528,61.4986072 100.675528,61.3927577 C100.702113,61.3133705 100.755282,61.0487465 100.835035,60.5724234 L101.340141,58.1908078 L100.595775,58.1908078 C100.648944,57.9526462 100.728697,57.5821727 100.808451,57.0793872 L101.605986,57.0793872 C101.659155,56.867688 101.738908,56.4707521 101.845246,55.9415042 L102.483275,55.8091922 C102.616197,55.7827298 102.882042,55.729805 103.254225,55.6239554 C103.147887,56.1267409 103.041549,56.6295265 102.98838,57.0793872 L104.317606,57.0793872 C104.211268,57.6086351 104.131514,57.9526462 104.10493,58.1908078 L102.775704,58.1908078 C102.45669,59.7520891 102.270599,60.6518106 102.244014,60.8899721 C102.21743,61.1281337 102.190845,61.3133705 102.21743,61.4456825 C102.244014,61.5779944 102.297183,61.6573816 102.403521,61.7367688 C102.509859,61.816156 102.616197,61.816156 102.722535,61.816156 C102.802289,61.816156 102.908627,61.816156 102.98838,61.7896936 C103.121303,61.7896936 103.307394,61.7367688 103.546655,61.683844" id="Path" fill="#00447B"></path>
                <path d="M106.019014,59.2493036 L108.464789,59.2493036 C108.491373,59.0640669 108.517958,58.9317549 108.517958,58.8523677 C108.517958,58.7729805 108.517958,58.6671309 108.491373,58.5612813 C108.464789,58.4554318 108.438204,58.3495822 108.385035,58.270195 C108.331866,58.1908078 108.278697,58.1114206 108.198944,58.0584958 C108.11919,58.005571 108.039437,57.9526462 107.933099,57.9261838 C107.826761,57.8997214 107.720423,57.8732591 107.5875,57.8732591 C107.454577,57.8732591 107.29507,57.8997214 107.162148,57.9526462 C107.029225,58.005571 106.869718,58.0849582 106.736796,58.1643454 C106.603873,58.270195 106.497535,58.3760446 106.417782,58.4818942 C106.338028,58.5877437 106.258275,58.7200557 106.205106,58.8259053 C106.151937,58.9317549 106.072183,59.0640669 106.019014,59.2493036 M109.023063,61.5779944 C108.94331,61.816156 108.810387,62.2130919 108.624296,62.7952646 C108.225528,62.8746518 107.906514,62.954039 107.640669,62.9805014 C107.374824,63.0069638 107.108979,63.0334262 106.843134,63.0334262 C106.391197,63.0334262 105.99243,62.9805014 105.646831,62.8746518 C105.301232,62.7688022 105.008803,62.5835655 104.796127,62.3189415 C104.556866,62.0543175 104.423944,61.7367688 104.34419,61.3398329 C104.264437,60.9428969 104.291021,60.545961 104.34419,60.1225627 C104.423944,59.6462396 104.556866,59.1963788 104.796127,58.7465181 C105.008803,58.2966574 105.274648,57.9526462 105.593662,57.6615599 C105.912676,57.3704735 106.258275,57.1852368 106.603873,57.0529248 C106.976056,56.9470752 107.348239,56.867688 107.720423,56.867688 C108.066021,56.867688 108.41162,56.9206128 108.704049,57.0264624 C108.996479,57.132312 109.262324,57.2910864 109.421831,57.5027855 C109.607923,57.7144847 109.740845,57.9791086 109.794014,58.2966574 C109.873768,58.6142061 109.873768,58.9582173 109.794014,59.3286908 C109.76743,59.5139276 109.714261,59.6991643 109.661092,59.8844011 L105.832923,59.8844011 C105.806338,60.0167131 105.779754,60.1490251 105.779754,60.2284123 C105.726585,60.4930362 105.753169,60.7311978 105.779754,60.9428969 C105.832923,61.1545961 105.912676,61.3398329 106.045599,61.4986072 C106.178521,61.6573816 106.338028,61.7632312 106.550704,61.816156 C106.76338,61.8955432 106.949472,61.9220056 107.162148,61.9220056 C107.401408,61.9220056 107.667254,61.8955432 107.959683,61.8426184 C108.252113,61.816156 108.597711,61.7103064 109.023063,61.5779944" id="Shape" fill="#00447B" fill-rule="nonzero"></path>
                <path d="M110.059859,62.8746518 L110.644718,60.1490251 L110.937148,58.5612813 C110.990317,58.2437326 111.043486,57.8997214 111.096655,57.5821727 C111.096655,57.5292479 111.123239,57.3440111 111.176408,57.0264624 C111.495423,57.0264624 111.734683,57.0264624 111.89419,57.0264624 C112.080282,57.0264624 112.319542,57.0264624 112.611972,57.0264624 L112.452465,57.8467967 C112.611972,57.6350975 112.744894,57.4763231 112.877817,57.3969359 C112.984155,57.2910864 113.117077,57.2116992 113.223415,57.132312 C113.356338,57.0529248 113.489261,57 113.648768,56.9735376 C113.808275,56.9470752 113.941197,56.9206128 114.100704,56.9206128 C114.233627,56.9206128 114.366549,56.9470752 114.526056,56.9735376 C114.472887,57.3175487 114.419718,57.7938719 114.366549,58.3231198 C114.180458,58.270195 113.994366,58.2437326 113.834859,58.2437326 C113.622183,58.2437326 113.462676,58.270195 113.276585,58.3495822 C113.117077,58.4289694 112.95757,58.5083565 112.798063,58.6406685 C112.665141,58.7729805 112.532218,58.9317549 112.42588,59.143454 C112.346127,59.3022284 112.239789,59.5139276 112.18662,59.7785515 C112.133451,59.9902507 112.053697,60.3077994 111.947359,60.810585 C111.841021,61.2869081 111.761268,61.7632312 111.681514,62.2395543 C111.65493,62.4247911 111.628345,62.6364903 111.601761,62.9275766 C111.335915,62.9275766 111.096655,62.9275766 110.883979,62.9275766 C110.618134,62.8746518 110.352289,62.8746518 110.059859,62.8746518" id="Path" fill="#00447B"></path>
                <path d="M118.593486,61.551532 C118.540317,61.7103064 118.487148,61.8955432 118.433979,62.0807799 C118.354225,62.2924791 118.301056,62.5306407 118.194718,62.821727 C117.689613,62.954039 117.184507,63.0069638 116.679401,63.0069638 C116.386972,63.0069638 116.121127,62.9805014 115.881866,62.9275766 C115.642606,62.8746518 115.403345,62.7688022 115.190669,62.6100279 C114.977993,62.4512535 114.818486,62.2660167 114.685563,62.0278552 C114.552641,61.7896936 114.472887,61.4986072 114.446303,61.1545961 C114.419718,60.810585 114.419718,60.4665738 114.499472,60.0961003 C114.579225,59.6197772 114.712148,59.143454 114.924824,58.7200557 C115.1375,58.270195 115.403345,57.9261838 115.722359,57.6350975 C116.041373,57.3440111 116.360387,57.1587744 116.73257,57.0529248 C117.078169,56.9470752 117.450352,56.8941504 117.875704,56.8941504 C118.114965,56.8941504 118.327641,56.9206128 118.566901,56.9470752 C118.806162,56.9735376 119.072007,57.0264624 119.391021,57.132312 L119.258099,58.3760446 C118.779577,58.1908078 118.327641,58.0849582 117.955458,58.0849582 C117.716197,58.0849582 117.476937,58.137883 117.264261,58.2172702 C117.051585,58.2966574 116.838908,58.4554318 116.652817,58.6406685 C116.466725,58.8259053 116.333803,59.0376045 116.227465,59.3022284 C116.121127,59.54039 116.041373,59.8050139 116.014789,60.0696379 C115.96162,60.4401114 115.96162,60.7576602 116.014789,61.0222841 C116.067958,61.2869081 116.227465,61.4986072 116.440141,61.6309192 C116.679401,61.7632312 116.945246,61.8426184 117.264261,61.8426184 C117.423768,61.8426184 117.609859,61.816156 117.84912,61.7632312 C118.061796,61.7103064 118.327641,61.6573816 118.593486,61.551532" id="Path" fill="#00447B"></path>
                <path d="M121.836796,56.2061281 C122.129225,55.7827298 122.39507,55.3328691 122.660915,54.8830084 C122.97993,54.8830084 123.245775,54.8830084 123.51162,54.8830084 C123.671127,54.8830084 123.936972,54.8830084 124.309155,54.8830084 C124.388908,55.2799443 124.521831,55.729805 124.654754,56.2061281 C124.468662,56.2061281 124.309155,56.2061281 124.202817,56.2061281 C124.123063,56.2061281 123.990141,56.2061281 123.777465,56.2061281 L123.431866,55.4651811 L122.793838,56.2061281 C122.660915,56.2061281 122.501408,56.2061281 122.368486,56.2061281 C122.129225,56.2061281 121.969718,56.2061281 121.836796,56.2061281 M120.560739,58.3231198 C120.667077,58.0584958 120.720246,57.8467967 120.746831,57.7409471 C120.773415,57.6350975 120.826585,57.4498607 120.906338,57.2381616 C121.411444,57.1058496 121.836796,57.0264624 122.208979,56.9735376 C122.581162,56.9206128 122.926761,56.8941504 123.272359,56.8941504 C123.644542,56.8941504 123.990141,56.9470752 124.309155,57.0529248 C124.601585,57.1587744 124.840845,57.3175487 124.973768,57.5292479 C125.133275,57.7409471 125.159859,58.0584958 125.10669,58.4554318 C125.080106,58.6671309 124.947183,59.2228412 124.761092,60.1225627 C124.575,61.0222841 124.388908,61.948468 124.229401,62.9011142 C123.963556,62.9011142 123.724296,62.9011142 123.51162,62.9011142 C123.298944,62.9011142 123.059683,62.9011142 122.767254,62.9011142 C122.900176,62.4512535 123.006514,61.8955432 123.139437,61.2869081 L123.431866,59.8579387 C123.272359,59.9637883 123.166021,60.0167131 123.086268,60.0696379 C123.006514,60.0961003 122.926761,60.1490251 122.847007,60.1754875 C122.767254,60.2019499 122.581162,60.2548747 122.368486,60.3342618 C122.129225,60.413649 121.943134,60.4665738 121.810211,60.5194986 C121.677289,60.5724234 121.544366,60.6253482 121.438028,60.678273 C121.33169,60.7311978 121.225352,60.810585 121.145599,60.8899721 C121.065845,60.9693593 120.986092,61.0487465 120.959507,61.1281337 C120.906338,61.2075209 120.879754,61.3133705 120.853169,61.4192201 C120.826585,61.5779944 120.853169,61.7103064 120.906338,61.8426184 C120.986092,61.948468 121.065845,62.0278552 121.198768,62.0807799 C121.33169,62.1337047 121.464613,62.1601671 121.650704,62.1601671 C121.757042,62.1601671 121.889965,62.1601671 121.996303,62.1337047 C122.129225,62.1072423 122.288732,62.0543175 122.527993,62.0013928 C122.421655,62.2130919 122.288732,62.5571031 122.102641,62.9805014 C121.836796,63.0334262 121.650704,63.0598886 121.491197,63.0598886 C121.33169,63.0598886 121.198768,63.086351 121.09243,63.086351 C120.667077,63.086351 120.294894,63.0334262 120.055634,62.9011142 C119.789789,62.7688022 119.630282,62.5571031 119.523944,62.2924791 C119.44419,62.0013928 119.417606,61.7367688 119.470775,61.4456825 C119.497359,61.2869081 119.550528,61.1281337 119.630282,60.9693593 C119.710035,60.810585 119.816373,60.6518106 119.922711,60.5194986 C120.055634,60.3871866 120.188556,60.2548747 120.374648,60.1225627 C120.560739,59.9902507 120.8,59.8844011 121.119014,59.7520891 C121.438028,59.6462396 121.86338,59.5139276 122.368486,59.408078 C122.501408,59.3816156 122.660915,59.3286908 122.793838,59.3022284 C122.953345,59.2493036 123.059683,59.2228412 123.166021,59.1699164 C123.245775,59.1169916 123.352113,59.0640669 123.405282,59.0111421 C123.485035,58.9317549 123.538204,58.8788301 123.564789,58.7994429 C123.617958,58.7200557 123.644542,58.6406685 123.644542,58.5877437 C123.671127,58.4289694 123.644542,58.3231198 123.564789,58.2172702 C123.485035,58.1114206 123.378697,58.0320334 123.245775,58.005571 C123.112852,57.9526462 122.953345,57.9526462 122.793838,57.9526462 C122.102641,57.8203343 121.384859,57.9791086 120.560739,58.3231198" id="Shape" fill="#00447B" fill-rule="nonzero"></path>
                <path d="M125.505458,62.8746518 C125.664965,62.2130919 125.877641,61.2604457 126.116901,59.9637883 C126.382746,58.6671309 126.568838,57.6880223 126.675176,57.0529248 C126.967606,57.0529248 127.206866,57.0529248 127.392958,57.0529248 C127.605634,57.0529248 127.844894,57.0529248 128.084155,57.0529248 L127.898063,57.9791086 C128.030986,57.7938719 128.163908,57.6615599 128.270246,57.5292479 C128.376585,57.4233983 128.509507,57.3175487 128.669014,57.2116992 C128.828521,57.1058496 129.014613,57.0529248 129.227289,56.9735376 C129.439965,56.9206128 129.652641,56.8941504 129.838732,56.8941504 C129.998239,56.8941504 130.131162,56.9206128 130.290669,56.9470752 C130.423592,56.9735376 130.556514,57.0264624 130.662852,57.0793872 C130.76919,57.132312 130.875528,57.2116992 130.928697,57.2910864 C131.008451,57.3704735 131.06162,57.4498607 131.114789,57.5557103 C131.167958,57.6615599 131.194542,57.7938719 131.247711,57.9791086 C131.354049,57.8467967 131.433803,57.7409471 131.513556,57.6350975 C131.59331,57.5557103 131.699648,57.4498607 131.805986,57.3440111 C131.938908,57.2381616 132.071831,57.1587744 132.204754,57.1058496 C132.337676,57.0529248 132.497183,57 132.683275,56.9470752 C132.842782,56.9206128 133.028873,56.8941504 133.214965,56.8941504 C133.507394,56.8941504 133.799824,56.9470752 134.039085,57.0529248 C134.278345,57.1587744 134.464437,57.3440111 134.597359,57.5821727 C134.703697,57.8203343 134.730282,58.1114206 134.677113,58.4554318 C134.650528,58.6406685 134.597359,58.9052925 134.517606,59.275766 C134.437852,59.6197772 134.30493,60.2019499 134.145423,61.0222841 C133.985915,61.816156 133.852993,62.4512535 133.799824,62.9011142 C133.533979,62.9011142 133.321303,62.9011142 133.135211,62.9011142 C132.895951,62.9011142 132.630106,62.9011142 132.311092,62.9011142 C132.41743,62.3983287 132.523768,61.8955432 132.65669,61.3398329 L132.922535,60.0167131 C133.002289,59.6727019 133.055458,59.408078 133.082042,59.1699164 C133.135211,58.9052925 133.108627,58.6935933 133.055458,58.5612813 C133.002289,58.4289694 132.922535,58.3231198 132.816197,58.270195 C132.709859,58.2172702 132.576937,58.1908078 132.41743,58.1908078 C132.257923,58.1908078 132.125,58.2172702 131.965493,58.2966574 C131.83257,58.3495822 131.699648,58.4554318 131.566725,58.6142061 C131.433803,58.7729805 131.327465,58.9317549 131.221127,59.1169916 C131.141373,59.3022284 131.035035,59.5933148 130.955282,59.9373259 C130.875528,60.281337 130.76919,60.7576602 130.662852,61.3133705 L130.370423,62.9011142 C130.077993,62.9011142 129.838732,62.9011142 129.652641,62.9011142 C129.466549,62.9011142 129.200704,62.9011142 128.88169,62.9011142 C128.961444,62.6100279 129.094366,62.0013928 129.280458,61.1016713 C129.466549,60.2019499 129.599472,59.5668524 129.652641,59.2493036 C129.679225,59.0905292 129.679225,58.9317549 129.679225,58.8259053 C129.679225,58.7200557 129.652641,58.5877437 129.572887,58.4818942 C129.519718,58.3760446 129.439965,58.2966574 129.360211,58.2437326 C129.253873,58.1908078 129.147535,58.1643454 129.014613,58.1643454 C128.775352,58.1643454 128.536092,58.2437326 128.323415,58.4289694 C128.110739,58.6142061 127.951232,58.8523677 127.81831,59.143454 C127.685387,59.4345404 127.52588,60.0167131 127.366373,60.8635097 C127.180282,61.7103064 127.073944,62.3983287 126.99419,62.9011142 C126.675176,62.9011142 126.435915,62.9011142 126.276408,62.9011142 C126.090317,62.8746518 125.824472,62.8746518 125.505458,62.8746518" id="Path" fill="#00447B"></path>
                <path d="M137.415317,58.270195 L137.202641,59.2493036 C137.149472,59.4610028 137.122887,59.6727019 137.096303,59.8579387 C137.016549,60.3342618 137.016549,60.7047354 137.043134,60.9693593 C137.096303,61.2339833 137.202641,61.4456825 137.388732,61.6044568 C137.574824,61.7632312 137.814085,61.816156 138.053345,61.816156 C138.345775,61.816156 138.61162,61.7367688 138.85088,61.551532 C139.090141,61.3927577 139.302817,61.1281337 139.462324,60.810585 C139.621831,60.4930362 139.728169,60.1225627 139.807923,59.7785515 C139.887676,59.2493036 139.834507,58.8259053 139.621831,58.5083565 C139.409155,58.1908078 139.063556,58.0320334 138.585035,58.0320334 C138.425528,58.0320334 138.266021,58.0584958 138.07993,58.0849582 C137.893838,58.137883 137.681162,58.1908078 137.415317,58.270195 M135.049296,62.8746518 C135.235387,62.1601671 135.501232,60.8899721 135.873415,59.0905292 C136.245599,57.2910864 136.484859,55.9415042 136.644366,55.0417827 C136.96338,55.0417827 137.229225,55.0417827 137.441901,55.0417827 C137.681162,55.0417827 137.920423,55.0417827 138.159683,55.0417827 C138.026761,55.5710306 137.867254,56.2590529 137.681162,57.0793872 C138.026761,57 138.31919,56.9470752 138.531866,56.9206128 C138.744542,56.8941504 138.930634,56.8941504 139.14331,56.8941504 C139.701585,56.8941504 140.126937,57 140.472535,57.1852368 C140.818134,57.3704735 141.057394,57.6880223 141.216901,58.137883 C141.376408,58.5877437 141.402993,59.1169916 141.296655,59.7256267 C141.216901,60.1490251 141.110563,60.5724234 140.924472,60.9958217 C140.73838,61.4192201 140.525704,61.7632312 140.233275,62.0807799 C139.96743,62.3983287 139.648415,62.6364903 139.302817,62.7952646 C138.957218,62.954039 138.61162,63.0069638 138.212852,63.0069638 C138.026761,63.0069638 137.867254,62.9805014 137.707746,62.954039 C137.548239,62.9275766 137.415317,62.8746518 137.308979,62.7952646 C137.176056,62.7158774 137.096303,62.6364903 136.989965,62.5571031 C136.910211,62.4777159 136.830458,62.3718663 136.777289,62.2924791 C136.72412,62.2130919 136.670951,62.0807799 136.591197,61.9220056 L136.405106,62.9011142 C136.112676,62.9011142 135.9,62.9011142 135.740493,62.9011142 C135.660739,62.8746518 135.421479,62.8746518 135.049296,62.8746518" id="Shape" fill="#00447B" fill-rule="nonzero"></path>
                <path d="M143.077817,56.0473538 C143.15757,55.6504178 143.210739,55.3593315 143.237324,55.1476323 L143.263908,54.9623955 C143.582923,54.9623955 143.848768,54.9623955 144.034859,54.9623955 C144.300704,54.9623955 144.566549,54.9623955 144.80581,54.9623955 C144.779225,55.0682451 144.752641,55.1740947 144.726056,55.2799443 L144.566549,56.0473538 C144.300704,56.0473538 144.061444,56.0473538 143.848768,56.0473538 C143.636092,56.0473538 143.370246,56.0473538 143.077817,56.0473538 M141.695423,62.8746518 C141.828345,62.2924791 141.961268,61.816156 142.041021,61.4456825 C142.173944,60.8370474 142.306866,60.1225627 142.466373,59.3286908 C142.62588,58.5348189 142.758803,57.7674095 142.891725,57.0529248 C143.237324,57.0529248 143.476585,57.0529248 143.662676,57.0529248 C143.822183,57.0529248 144.061444,57.0529248 144.433627,57.0529248 C144.27412,57.7144847 144.141197,58.3495822 144.008275,58.9582173 C143.875352,59.5668524 143.74243,60.2548747 143.609507,61.0222841 C143.476585,61.7896936 143.370246,62.4247911 143.290493,62.8746518 C142.971479,62.8746518 142.732218,62.8746518 142.519542,62.8746518 C142.333451,62.8746518 142.067606,62.8746518 141.695423,62.8746518" id="Shape" fill="#00447B" fill-rule="nonzero"></path>
                <path d="M148.155458,58.0849582 C147.863028,58.0849582 147.570599,58.1643454 147.304754,58.3231198 C147.038908,58.4818942 146.826232,58.7200557 146.666725,59.0376045 C146.507218,59.3551532 146.374296,59.6991643 146.321127,60.0961003 C146.267958,60.4401114 146.267958,60.7311978 146.321127,60.9958217 C146.374296,61.2604457 146.507218,61.4721448 146.69331,61.6309192 C146.879401,61.7896936 147.118662,61.8690808 147.437676,61.8690808 C147.730106,61.8690808 148.022535,61.7896936 148.28838,61.6309192 C148.554225,61.4721448 148.766901,61.2075209 148.926408,60.8899721 C149.085915,60.5724234 149.218838,60.2019499 149.272007,59.8314763 C149.325176,59.5139276 149.325176,59.2228412 149.272007,58.9582173 C149.218838,58.6935933 149.1125,58.4818942 148.926408,58.3231198 C148.713732,58.1643454 148.474472,58.0849582 148.155458,58.0849582 M148.368134,56.8941504 C148.766901,56.8941504 149.139085,56.9735376 149.484683,57.0793872 C149.830282,57.2116992 150.122711,57.3969359 150.335387,57.6615599 C150.548063,57.9261838 150.680986,58.2437326 150.760739,58.6142061 C150.840493,58.9846797 150.840493,59.3816156 150.760739,59.8050139 C150.680986,60.2284123 150.548063,60.6518106 150.361972,61.0752089 C150.149296,61.4721448 149.910035,61.8426184 149.591021,62.1337047 C149.298592,62.4247911 148.926408,62.6629526 148.527641,62.7952646 C148.128873,62.954039 147.703521,63.0069638 147.251585,63.0069638 C146.852817,63.0069638 146.480634,62.9275766 146.135035,62.821727 C145.789437,62.689415 145.523592,62.5041783 145.310915,62.2395543 C145.098239,61.9749304 144.965317,61.6573816 144.885563,61.2869081 C144.80581,60.9164345 144.80581,60.5194986 144.885563,60.0961003 C144.965317,59.6727019 145.071655,59.275766 145.257746,58.8788301 C145.443838,58.5083565 145.683099,58.1643454 146.002113,57.8467967 C146.321127,57.5557103 146.666725,57.3175487 147.118662,57.1587744 C147.490845,57 147.916197,56.8941504 148.368134,56.8941504" id="Shape" fill="#00447B" fill-rule="nonzero"></path>
                <path d="M0.239260563,62.9011142 C1.27605634,58.9317549 2.10017606,55.597493 2.71161972,52.8983287 C3.32306338,50.2256267 4.09401408,46.6532033 4.99788732,42.2075209 C5.90176056,37.7618384 6.48661972,34.7980501 6.72588028,33.3690808 L7.04489437,31.3314763 C10.4742958,31.3579387 14.6214789,31.3844011 19.5130282,31.3844011 C24.0058099,31.3844011 27.9934859,31.3579387 31.4228873,31.3314763 L31.2633803,32.0988858 C31.2102113,32.2841226 31.0772887,32.9456825 30.8114437,34.1100279 L30.253169,36.6239554 C30.146831,37.1532033 30.040493,37.7089136 29.9341549,38.264624 C27.1427817,38.132312 24.8033451,38.0793872 22.8892606,38.0793872 C20.7890845,38.0793872 19.3801056,38.0793872 18.6357394,38.0793872 C17.8913732,38.0793872 16.7482394,38.132312 15.1797535,38.1852368 L14.0366197,43.5041783 C15.7380282,43.5571031 17.7584507,43.5835655 20.0447183,43.5835655 C20.868838,43.5835655 23.0487676,43.5306407 26.584507,43.4247911 C26.1059859,45.4094708 25.5742958,47.7381616 24.9894366,50.4902507 C22.4639085,50.4637883 20.5498239,50.4373259 19.1940141,50.4373259 C17.1735915,50.4373259 14.9139085,50.4902507 12.4149648,50.5961003 L11.218662,56.2061281 L13.7176056,56.2061281 C14.4619718,56.2061281 16.0038732,56.1796657 18.3433099,56.1267409 L22.8892606,56.0208914 C23.5538732,55.994429 24.697007,55.9415042 26.2920775,55.8356546 C25.7338028,58.1114206 25.2021127,60.4665738 24.6704225,62.9011142 C21.1080986,62.8746518 17.2267606,62.8481894 12.9732394,62.8481894 L3.34964789,62.8746518 L0.239260563,62.9011142 Z" id="Path" fill="#E5231E"></path>
                <path d="M29.5619718,62.9011142 C30.5455986,59.2493036 31.2899648,56.2855153 31.8482394,53.9832869 C32.8584507,49.775766 33.7889085,45.6211699 34.6130282,41.4930362 C35.4637324,37.3649025 36.1017606,33.9512535 36.5271127,31.3314763 C38.4943662,31.3579387 40.2489437,31.3844011 41.7908451,31.3844011 C42.8276408,31.3844011 44.3163732,31.3579387 46.2570423,31.3314763 L44.3429577,39.6935933 L41.471831,52.7924791 L40.8603873,56.0208914 C43.359331,56.0738162 44.9809859,56.1002786 45.7519366,56.1002786 C49.5801056,56.1002786 52.5044014,56.0473538 54.4716549,55.9415042 L52.8234155,62.9275766 C48.9952465,62.9011142 45.353169,62.8746518 41.8705986,62.8746518 C37.1917254,62.8481894 33.0711268,62.8746518 29.5619718,62.9011142" id="Path" fill="#E5231E"></path>
                <path d="M83.103169,55.2005571 C82.7841549,56.1002786 82.3588028,57.3704735 81.8271127,58.9846797 C81.2954225,60.5988858 80.9232394,61.8690808 80.6839789,62.7423398 C77.493838,63.2451253 74.6492958,63.4832869 72.2035211,63.4832869 C69.8375,63.4832869 67.7107394,63.1657382 65.7700704,62.5571031 C63.8294014,61.9220056 62.1545775,60.9164345 60.6924296,59.4874652 C59.2302817,58.0584958 58.2998239,56.3913649 57.9010563,54.45961 C57.5022887,52.5278552 57.4757042,50.3844011 57.8744718,47.9763231 C58.3264085,45.1977716 59.2568662,42.683844 60.6126761,40.4345404 C61.9684859,38.2116992 63.6964789,36.3593315 65.7700704,34.8509749 C67.8702465,33.3690808 70.0501761,32.310585 72.3630282,31.6490251 C74.6758803,31.0139276 76.9887324,30.6963788 79.3547535,30.6963788 C81.5080986,30.6963788 84.1399648,30.9874652 87.1971831,31.5696379 L86.9047535,33.5013928 C86.7984155,34.3481894 86.6920775,35.2743733 86.5591549,36.3064067 L86.2667254,38.9526462 C84.6450704,38.5292479 83.2892606,38.2381616 82.2790493,38.0793872 C81.2422535,37.9206128 80.2852113,37.8412256 79.381338,37.8412256 C77.4140845,37.8412256 75.5797535,38.264624 73.8517606,39.0849582 C72.1503521,39.9052925 70.6882042,41.1225627 69.5184859,42.7103064 C68.3487676,44.2980501 67.6044014,46.0445682 67.2853873,47.9763231 C66.9929577,49.7228412 67.1258803,51.2311978 67.6575704,52.5013928 C68.2158451,53.7715877 69.0665493,54.724234 70.2362676,55.4122563 C71.4059859,56.1002786 72.9478873,56.4442897 74.8353873,56.4442897 C75.8721831,56.4442897 77.0153169,56.3649025 78.2647887,56.1796657 C79.5940141,56.0473538 81.1890845,55.7033426 83.103169,55.2005571" id="Path" fill="#E5231E"></path>
                <path d="M46.4963028,94.7618384 C33.7357394,94.7618384 21.7727113,88.1197772 14.5151408,76.9791086 C13.6112676,75.6030641 13.9302817,73.6977716 15.259507,72.718663 C16.5621479,71.7660167 18.3698944,72.1100279 19.2737676,73.5125348 C25.4413732,82.9860724 35.6232394,88.6490251 46.4963028,88.6490251 C48.0913732,88.6490251 49.3940141,90.0250696 49.3940141,91.6922006 C49.3940141,93.3857939 48.0913732,94.7618384 46.4963028,94.7618384" id="Path" fill="#00447B"></path>
                <path d="M73.0542254,21.5933148 C72.1769366,21.5933148 71.2996479,21.1699164 70.7413732,20.3495822 C64.2547535,11.0877437 53.9133803,5.79526462 43.0403169,6.19220056 C41.471831,6.24512535 40.1160211,4.92200557 40.0628521,3.25487465 C40.0096831,1.56128134 41.2591549,0.158774373 42.8542254,0.105849582 C55.6147887,-0.344011142 67.7639085,5.87465181 75.393662,16.7506964 C76.3507042,18.1002786 76.0848592,20.005571 74.7822183,21.0111421 C74.2505282,21.3816156 73.665669,21.5933148 73.0542254,21.5933148" id="Path" fill="#00447B"></path>
                <path d="M47.7191901,86.2674095 C45.3797535,86.2674095 43.0137324,86.0557103 40.6742958,85.5793872 C39.1058099,85.2618384 38.0690141,83.6740947 38.3614437,82.0334262 C38.6538732,80.3662953 40.1426056,79.281337 41.7110915,79.5724234 C52.4246479,81.6629526 63.4040493,78.0376045 71.0869718,69.913649 C72.2035211,68.7228412 74.0378521,68.7228412 75.1544014,69.913649 C76.2709507,71.1044568 76.2709507,73.0362117 75.1544014,74.2270195 C67.843662,82.0069638 57.9276408,86.2674095 47.7191901,86.2674095" id="Path" fill="#00447B"></path>
                <path d="M16.881162,26.1183844 C16.1367958,26.1183844 15.3924296,25.8272981 14.8341549,25.218663 C13.7176056,24.0278552 13.7176056,22.0961003 14.8341549,20.9052925 C23.8728873,11.3523677 36.7663732,7.1183844 49.3408451,9.55292479 C50.909331,9.87047354 51.9461268,11.4582173 51.6536972,13.0988858 C51.3612676,14.7660167 49.8725352,15.8509749 48.3040493,15.5598886 C37.590493,13.4693593 26.6110915,17.0947075 18.928169,25.218663 C18.3698944,25.8272981 17.6255282,26.1183844 16.881162,26.1183844" id="Path" fill="#00447B"></path>
            </g>
        </g>
    </g>
</svg>