<?xml version="1.0" encoding="UTF-8"?>
<svg width="1332px" height="112px" viewBox="0 0 1332 112" version="1.1" xmlns="http://www.w3.org/2000/svg" xmlns:xlink="http://www.w3.org/1999/xlink">
    <!-- Generator: Sketch 51.1 (57501) - http://www.bohemiancoding.com/sketch -->
    <title>Rocketgram - Marca &amp; S°mbolo</title>
    <desc>Created with Sketch.</desc>
    <defs></defs>
    <g id="Page-1" stroke="none" stroke-width="1" fill-rule="evenodd">
        <g id="Rocketgram---Marca-&amp;-S°mbolo">
            <path d="M161.0221,16.5844 C149.2051,17.4364 138.9591,21.7054 126.8441,18.7794 C91.5511,10.2574 60.8281,20.3084 37.4271,47.9534 C13.4511,76.2774 9.5991,108.6224 23.8501,142.8754 C25.4601,146.7474 25.7551,149.8384 24.2201,153.6644 C22.5671,157.7834 21.6701,162.2054 20.4041,166.6354 C-3.7029,136.8364 -10.7439,78.8534 26.9401,36.2334 C65.0791,-6.9006 124.8461,-7.5246 161.0221,16.5844" id="Fill-1"></path>
            <path d="M196.6191,52.8986 C218.9311,88.0906 218.3201,144.4256 179.0281,182.1166 C139.2351,220.2886 81.9081,218.4026 46.8831,192.9636 C53.0811,191.0246 59.2071,189.8486 64.8691,187.2926 C66.4421,186.5826 67.7311,187.7266 69.0711,188.2986 C124.5811,212.0086 184.8631,179.3366 195.0771,119.8976 C197.2201,107.4296 196.4901,94.9596 193.0221,82.7976 C191.8721,78.7656 191.9271,75.1336 192.9221,71.1576 C194.3701,65.3746 195.3171,59.4656 196.6191,52.8986" id="Fill-3"></path>
            <path d="M40.8266,184.5976 C30.1016,184.9356 28.0056,183.0206 28.5926,175.4246 C29.7126,160.9296 34.0496,147.7226 45.0426,137.4836 C46.1516,136.4496 47.3896,134.3636 49.1216,135.6366 C50.5876,136.7136 49.0376,138.3846 48.5206,139.6886 C44.9386,148.7206 43.1256,158.1496 41.8366,167.7376 C41.4056,170.9436 42.2136,171.9426 45.4036,171.5336 C54.9956,170.3066 64.4256,168.4996 73.4566,164.8806 C74.8096,164.3386 76.6426,162.4306 77.8516,164.4106 C78.8616,166.0646 76.7726,167.3346 75.7256,168.4456 C65.4366,179.3736 52.2286,183.5636 40.8266,184.5976" id="Fill-5"></path>
            <path d="M68.9486,76.7272 C61.8686,87.4442 55.1826,97.6872 48.3666,107.8432 C42.3956,116.7422 42.3316,116.6992 34.6396,109.0072 C28.8896,103.2572 28.8666,103.2352 34.4856,97.3022 C41.0286,90.3952 48.1586,84.2142 56.7806,79.9962 C60.3286,78.2602 63.9526,76.6342 68.9486,76.7272" id="Fill-7"></path>
            <path d="M136.2921,144.7697 C136.6271,149.1557 135.0621,152.4847 133.5331,155.7457 C128.5571,166.3587 120.6631,174.6417 112.0741,182.3777 C110.2251,184.0427 109.0521,183.6077 107.5081,182.0477 C103.9991,178.5037 100.3491,175.0987 96.3311,171.2267 C109.6421,161.9827 122.5171,153.1107 136.2921,144.7697" id="Fill-9"></path>
            <path d="M132.7583,98.6222 C122.5963,98.5612 114.4163,90.2672 114.4953,80.1042 C114.5733,70.0642 123.1043,61.6212 133.0543,61.7342 C143.0633,61.8482 151.4513,70.4012 151.3563,80.3952 C151.2593,90.5292 142.9393,98.6832 132.7583,98.6222 M179.8523,24.1322 C169.5113,24.5082 159.2753,25.6642 149.0993,27.5262 C122.6933,32.3562 100.1043,43.5192 84.7683,66.5122 C73.1273,83.9642 62.3643,101.9942 50.2763,119.1552 C48.1253,122.2092 48.3323,125.0182 50.9833,127.6702 C62.5263,139.2202 74.0653,150.7712 85.5903,162.3392 C88.2453,165.0032 91.0463,165.2312 94.0933,163.0702 C111.0803,151.0222 129.0203,140.4162 146.2193,128.6982 C159.9563,119.3402 170.8403,107.3612 177.3023,91.7492 C184.4573,74.4612 187.5923,56.3422 188.6593,37.7812 C188.7343,36.2832 188.8033,34.7852 188.8833,33.2882 C189.3083,25.3762 187.7013,23.8472 179.8523,24.1322" id="Fill-11"></path>
            <path d="M327.3627,81.9241 C327.3627,79.3801 326.8867,76.9071 325.9387,74.5101 C324.9887,72.1121 323.6547,69.9661 321.9337,68.0711 C320.2127,66.1781 318.1657,64.6381 315.7937,63.4541 C313.4197,62.2701 310.8387,61.5891 308.0507,61.4111 C305.9737,61.3531 303.9417,61.3081 301.9547,61.2781 C299.9667,61.2481 297.9057,61.2331 295.7697,61.2331 L278.2377,61.2331 L278.2377,102.5261 L301.7327,102.5261 L305.0697,102.5261 C306.1067,102.5261 307.2197,102.4671 308.4067,102.3481 C311.1947,102.1701 313.7607,101.5191 316.1047,100.3941 C318.4477,99.2711 320.4497,97.7761 322.1117,95.9101 C323.7727,94.0451 325.0627,91.9131 325.9837,89.5161 C326.9027,87.1191 327.3627,84.5881 327.3627,81.9241 Z M252.3417,43.1671 C252.3417,40.3801 253.6457,38.9851 256.2567,38.9851 L310.7207,38.9851 C316.7127,38.9851 322.3197,40.1121 327.5407,42.3661 C332.7607,44.6221 337.3147,47.6771 341.2007,51.5331 C345.0867,55.3901 348.1427,59.9291 350.3667,65.1491 C352.5917,70.3701 353.7047,75.9171 353.7047,81.7911 C353.7047,85.8841 353.1397,89.8001 352.0137,93.5381 C350.8857,97.2761 349.3137,100.7461 347.2977,103.9501 C345.2797,107.1531 342.8767,110.0461 340.0887,112.6271 C337.2997,115.2081 334.2157,117.3881 330.8337,119.1681 L353.9717,164.8221 C354.0897,165.4161 354.2967,166.0091 354.5947,166.6011 C354.8907,167.1951 355.0397,167.8181 355.0397,168.4701 C355.0397,170.2501 354.0007,171.1401 351.9247,171.1401 L331.2787,171.1401 C329.1427,171.1401 327.7187,170.0431 327.0067,167.8471 L305.4697,125.1311 C304.5207,125.1311 303.4967,125.1461 302.3997,125.1751 C301.3007,125.2061 299.7887,125.2191 297.8617,125.2191 L290.2967,125.2191 L278.2377,125.2191 L278.2377,167.3131 C278.2377,169.8651 276.8727,171.1401 274.1447,171.1401 L256.2567,171.1401 C255.0697,171.1401 254.1207,170.8291 253.4087,170.2061 C252.6967,169.5831 252.3417,168.6191 252.3417,167.3131 L252.3417,43.1671 Z" id="Fill-13"></path>
            <path d="M377.2968,114.8074 C377.2968,119.5554 378.1268,124.0484 379.7888,128.2894 C381.4488,132.5324 383.7628,136.2254 386.7298,139.3694 C389.6958,142.5144 393.2118,145.0064 397.2758,146.8444 C401.3388,148.6844 405.7748,149.6034 410.5808,149.6034 C415.2668,149.6034 419.6128,148.6844 423.6178,146.8444 C427.6228,145.0064 431.0778,142.5144 433.9858,139.3694 C436.8918,136.2254 439.1608,132.5324 440.7938,128.2894 C442.4248,124.0484 443.2408,119.5554 443.2408,114.8074 C443.2408,110.1214 442.4248,105.6414 440.7938,101.3694 C439.1608,97.0984 436.8918,93.3464 433.9858,90.1124 C431.0778,86.8794 427.6228,84.2984 423.6178,82.3694 C419.6128,80.4424 415.2668,79.4774 410.5808,79.4774 C405.7748,79.4774 401.3388,80.4424 397.2758,82.3694 C393.2118,84.2984 389.6958,86.8794 386.7298,90.1124 C383.7628,93.3464 381.4488,97.0984 379.7888,101.3694 C378.1268,105.6414 377.2968,110.1214 377.2968,114.8074 M352.2008,114.8074 C352.2008,109.4094 352.8978,104.2034 354.2908,99.1894 C355.6838,94.1764 357.6538,89.5044 360.2048,85.1724 C362.7538,80.8424 365.8068,76.9114 369.3638,73.3814 C372.9208,69.8514 376.8628,66.8264 381.1908,64.3044 C385.5178,61.7834 390.1558,59.8254 395.1068,58.4304 C400.0568,57.0364 405.2298,56.3394 410.6248,56.3394 C415.9608,56.3394 421.1178,57.0364 426.0968,58.4304 C431.0768,59.8254 435.7148,61.7834 440.0138,64.3044 C444.3118,66.8264 448.2398,69.8514 451.7968,73.3814 C455.3538,76.9114 458.4058,80.8424 460.9558,85.1724 C463.5048,89.5044 465.4768,94.1764 466.8698,99.1894 C468.2628,104.2034 468.9598,109.4094 468.9598,114.8074 C468.9598,120.2064 468.2628,125.3974 466.8698,130.3814 C465.4768,135.3654 463.5048,140.0074 460.9558,144.3084 C458.4058,148.6114 455.3538,152.5404 451.7968,156.1004 C448.2398,159.6604 444.3118,162.7014 440.0138,165.2224 C435.7148,167.7454 431.0768,169.7024 426.0968,171.0954 C421.1178,172.4894 415.9608,173.1874 410.6248,173.1874 C405.2298,173.1874 400.0568,172.4894 395.1068,171.0954 C390.1558,169.7024 385.5178,167.7454 381.1908,165.2224 C376.8628,162.7014 372.9208,159.6604 369.3638,156.1004 C365.8068,152.5404 362.7538,148.6114 360.2048,144.3084 C357.6538,140.0074 355.6838,135.3654 354.2908,130.3814 C352.8978,125.3974 352.2008,120.2064 352.2008,114.8074" id="Fill-15"></path>
            <path d="M556.6284,141.5056 C557.6364,140.8536 558.4824,140.4526 559.1644,140.3046 C559.8454,140.1566 560.4244,140.0816 560.8994,140.0816 C561.9084,140.1416 562.7684,140.6756 563.4804,141.6836 L565.6164,144.6206 L571.9354,153.6096 C572.2314,154.0256 572.4694,154.4546 572.6474,154.8996 C572.8254,155.3446 572.9144,155.7446 572.9144,156.1006 C572.9144,157.0506 572.5874,157.8966 571.9354,158.6376 C571.2814,159.3796 570.4224,160.1366 569.3544,160.9056 C564.3114,164.5856 558.8674,167.5516 553.0244,169.8056 C547.1794,172.0596 540.7564,173.1876 533.7564,173.1876 C528.4754,173.1876 523.3584,172.4886 518.4054,171.0966 C513.4514,169.7026 508.8234,167.7446 504.5224,165.2226 C500.2204,162.7016 496.2904,159.6756 492.7314,156.1456 C489.1714,152.6156 486.1014,148.6856 483.5204,144.3536 C480.9394,140.0236 478.9504,135.3646 477.5574,130.3816 C476.1634,125.3986 475.4664,120.2076 475.4664,114.8076 C475.4664,109.4096 476.1634,104.2176 477.5574,99.2346 C478.9504,94.2506 480.9394,89.5936 483.5204,85.2626 C486.1014,80.9326 489.1714,77.0016 492.7314,73.4706 C496.2904,69.9416 500.2204,66.9156 504.5224,64.3936 C508.8234,61.8726 513.4514,59.9146 518.4054,58.5196 C523.3584,57.1266 528.4754,56.4286 533.7564,56.4286 C540.3424,56.4286 546.5714,57.4376 552.4454,59.4546 C558.3194,61.4716 563.5394,64.2016 568.1084,67.6416 L568.0194,67.5526 C568.8494,68.3836 569.6654,69.1096 570.4664,69.7336 C571.2674,70.3556 571.6684,71.3206 571.6684,72.6256 C571.6684,72.9816 571.6524,73.3966 571.6234,73.8716 C571.5924,74.3466 571.4304,74.7916 571.1344,75.2056 L563.8364,86.3306 C562.6494,88.1096 561.3444,89.0006 559.9204,89.0006 C558.9114,89.0006 557.7854,88.4966 556.5394,87.4866 C553.5134,84.9366 549.9824,82.8596 545.9494,81.2576 C541.9134,79.6556 537.7614,78.8546 533.4894,78.8546 C528.8624,78.8546 524.5154,79.8196 520.4524,81.7466 C516.3874,83.6756 512.8134,86.2856 509.7284,89.5786 C506.6434,92.8716 504.2114,96.6976 502.4314,101.0586 C500.6514,105.4196 499.7614,110.0026 499.7614,114.8076 C499.7614,119.7336 500.6514,124.3606 502.4314,128.6916 C504.2114,133.0226 506.6284,136.7886 509.6844,139.9926 C512.7394,143.1966 516.3144,145.7336 520.4074,147.6026 C524.5014,149.4706 528.8624,150.4046 533.4894,150.4046 C538.5314,150.4046 542.8924,149.5306 546.5714,147.7796 C550.2504,146.0306 553.6024,143.9396 556.6284,141.5056" id="Fill-17"></path>
            <path d="M580.1386,29.908 C580.1386,28.366 580.4506,27.091 581.0736,26.081 C581.6966,25.073 583.1936,24.568 585.5676,24.568 L600.7846,24.568 C602.5056,24.568 603.7516,25.089 604.5226,26.126 C605.2936,27.164 605.6806,28.277 605.6806,29.463 L605.6806,102.883 L644.8366,60.522 C645.6076,59.751 646.3946,59.158 647.1956,58.742 C647.9956,58.327 648.9596,58.119 650.0876,58.119 L670.4676,58.119 C671.7716,58.119 672.7506,58.386 673.4036,58.92 C674.0556,59.454 674.3826,60.166 674.3826,61.055 C674.3826,61.649 674.2936,62.183 674.1156,62.658 C673.9376,63.133 673.6116,63.667 673.1366,64.26 L633.1786,105.997 L680.6126,164.555 L680.4346,164.555 C681.0866,165.209 681.5466,165.921 681.8136,166.691 C682.0806,167.463 682.2146,168.086 682.2146,168.56 C682.2146,169.569 681.9166,170.251 681.3246,170.606 C680.7306,170.963 679.8406,171.14 678.6546,171.14 L655.9616,171.14 C654.2396,171.14 652.5796,169.894 650.9776,167.403 L616.5366,122.639 L605.8576,133.763 L605.8576,165.801 C605.8576,166.335 605.7686,166.914 605.5906,167.537 C605.4126,168.159 605.1306,168.738 604.7456,169.272 C604.3586,169.805 603.8406,170.251 603.1876,170.606 C602.5346,170.963 601.7336,171.14 600.7846,171.14 L585.0336,171.14 C584.1436,171.14 583.4006,170.963 582.8086,170.606 C582.2146,170.251 581.7096,169.805 581.2956,169.272 C580.8796,168.738 580.5836,168.19 580.4056,167.626 C580.2276,167.062 580.1386,166.602 580.1386,166.246 L580.1386,29.908 Z" id="Fill-19"></path>
            <path d="M725.246,78.4099 C721.744,78.4099 718.333,79.0479 715.012,80.3229 C711.688,81.5999 708.648,83.3349 705.89,85.5289 C703.131,87.7249 700.727,90.3059 698.682,93.2719 C696.635,96.2389 695.136,99.4429 694.186,102.8829 L757.194,102.8829 C756.244,99.2649 754.806,95.9569 752.878,92.9599 C750.949,89.9649 748.62,87.3839 745.892,85.2179 C743.162,83.0529 740.048,81.3769 736.548,80.1899 C733.047,79.0039 729.279,78.4099 725.246,78.4099 M764.759,158.6809 C759.537,163.1319 753.826,166.6329 747.628,169.1819 C741.427,171.7329 734.619,173.0099 727.203,173.0099 C719.194,173.0099 711.599,171.4969 704.421,168.4709 C697.242,165.4449 690.953,161.2929 685.555,156.0119 C680.155,150.7319 675.868,144.5469 672.695,137.4569 C669.52,130.3679 667.933,122.7279 667.933,114.5409 C667.933,109.2619 668.586,104.1599 669.892,99.2339 C671.196,94.3099 673.051,89.6979 675.454,85.3959 C677.856,81.0949 680.778,77.1499 684.22,73.5599 C687.66,69.9709 691.502,66.9009 695.744,64.3489 C699.985,61.7989 704.584,59.8259 709.538,58.4309 C714.491,57.0369 719.728,56.3399 725.246,56.3399 C729.754,56.3399 734.203,56.8889 738.595,57.9859 C742.984,59.0839 747.152,60.6419 751.098,62.6579 C755.043,64.6759 758.736,67.1229 762.178,69.9999 C765.618,72.8779 768.643,76.1269 771.255,79.7449 C774.815,84.7279 777.425,90.0979 779.087,95.8519 C780.747,101.6079 781.578,107.9859 781.578,114.9859 C781.578,116.7079 781.503,118.1449 781.356,119.3019 C781.207,120.4589 780.836,121.3939 780.243,122.1059 C779.649,122.8179 778.76,123.3379 777.574,123.6629 C776.387,123.9899 774.725,124.1519 772.59,124.1519 L693.653,124.1519 C694.424,128.4239 695.892,132.2059 698.059,135.4989 C700.224,138.7919 702.789,141.5809 705.756,143.8639 C708.722,146.1489 711.955,147.8689 715.456,149.0259 C718.956,150.1819 722.456,150.7619 725.958,150.7619 C728.627,150.7619 731.193,150.4939 733.655,149.9609 C736.117,149.4269 738.417,148.7149 740.553,147.8239 C742.688,146.9339 744.66,145.9109 746.471,144.7539 C748.279,143.5979 749.866,142.3959 751.231,141.1499 C751.231,141.0919 751.261,141.0609 751.32,141.0609 C752.032,140.4089 752.714,139.8899 753.367,139.5039 C754.019,139.1179 754.702,138.9249 755.414,138.9249 C755.948,138.9249 756.556,139.1029 757.239,139.4589 C757.92,139.8149 758.588,140.4089 759.241,141.2389 C760.843,143.1969 762.207,144.8289 763.335,146.1339 C764.461,147.4389 765.382,148.5359 766.094,149.4269 C766.806,150.3159 767.324,151.0879 767.651,151.7399 C767.976,152.3929 768.14,153.0459 768.14,153.6979 C768.14,155.3589 767.013,157.0209 764.759,158.6809" id="Fill-21"></path>
            <path d="M829.6307,171.1404 C824.9437,171.0814 820.5377,170.3684 816.4157,169.0024 C812.2907,167.6374 808.7017,165.6624 805.6477,163.0784 C802.5907,160.4954 800.1737,157.3184 798.3947,153.5474 C796.6137,149.7764 795.7247,145.4854 795.7247,140.6734 L795.7247,125.9764 L795.7247,80.5444 L785.4897,80.5444 C783.7687,80.5444 782.4787,80.1614 781.6187,79.3934 C780.7587,78.6254 780.3287,77.3544 780.3287,75.5804 L780.3287,62.8174 C780.3287,61.1034 780.7587,59.8914 781.6187,59.1824 C782.4787,58.4734 783.7687,58.1184 785.4897,58.1184 L795.7247,58.1184 C795.7247,54.9744 795.7377,51.8444 795.7697,48.7294 C795.7977,45.6154 795.8137,42.4864 795.8137,39.3404 C795.8137,38.1544 796.1837,37.2204 796.9257,36.5374 C797.6667,35.8564 798.8087,35.2464 800.3527,34.7134 C801.3597,34.3574 802.5767,33.9274 804.0007,33.4224 C805.4247,32.9194 806.8937,32.4304 808.4057,31.9544 C809.9187,31.4804 811.3877,31.0794 812.8117,30.7524 C814.2347,30.4274 815.4207,30.2634 816.3707,30.2634 C818.2087,30.2634 819.4107,30.7684 819.9757,31.7764 C820.5377,32.7864 820.8197,34.1204 820.8197,35.7814 C820.8197,39.5184 820.8057,43.2424 820.7767,46.9494 C820.7457,50.6584 820.7317,54.3804 820.7317,58.1184 L833.5467,58.1184 C835.0887,58.1184 836.2757,58.5174 837.1067,59.3154 C837.9367,60.1134 838.3527,61.3694 838.3527,63.0824 L838.3527,75.2254 C838.3527,77.1174 837.9367,78.4764 837.1067,79.3044 C836.2757,80.1314 835.0887,80.5444 833.5467,80.5444 L820.7317,80.5444 L820.7317,90.3464 L820.7317,97.4314 C820.7317,99.4804 820.7457,101.3964 820.7767,103.1794 C820.8057,104.9624 820.8197,106.8924 820.8197,108.9714 L820.8197,116.0984 L820.8197,125.9014 C820.8197,126.0204 820.8057,126.1384 820.7767,126.2584 C820.7457,126.3774 820.7317,126.4954 820.7317,126.6144 L820.7317,138.2874 C820.7317,142.2084 821.5017,145.0304 823.0457,146.7534 C824.5877,148.4764 827.0787,149.3364 830.5217,149.3364 C831.7667,149.3364 832.7457,149.7824 833.4577,150.6714 C834.1697,151.5614 834.5257,152.6294 834.5257,153.8754 L834.5257,166.2454 C834.5257,167.7884 834.0947,168.9904 833.2347,169.8494 C832.3747,170.7104 831.1727,171.1404 829.6307,171.1404" id="Fill-23"></path>
            <path d="M863.0526,114.3625 C863.0526,119.1095 863.8826,123.6045 865.5436,127.8455 C867.2046,132.0875 869.5186,135.8105 872.4866,139.0145 C875.4516,142.2175 878.9376,144.7535 882.9426,146.6225 C886.9476,148.4915 891.3226,149.4265 896.0696,149.4265 C900.7546,149.4265 905.1756,148.5075 909.3286,146.6675 C913.4816,144.8285 917.1006,142.3515 920.1866,139.2365 C923.2706,136.1215 925.7176,132.4875 927.5286,128.3345 C929.3366,124.1825 930.3006,119.7915 930.4206,115.1635 L930.4206,113.7395 C930.3006,109.1125 929.3366,104.7215 927.5286,100.5685 C925.7176,96.4165 923.2706,92.7675 920.1866,89.6225 C917.1006,86.4785 913.4816,83.9865 909.3286,82.1475 C905.1756,80.3085 900.7546,79.3885 896.0696,79.3885 C891.3226,79.3885 886.9476,80.3225 882.9426,82.1915 C878.9376,84.0605 875.4516,86.5965 872.4866,89.8005 C869.5186,93.0045 867.2046,96.7285 865.5436,100.9685 C863.8826,105.2115 863.0526,109.6765 863.0526,114.3625 M928.7296,163.1315 C929.0256,162.0635 929.1746,160.8035 929.1746,159.3495 C929.1746,157.8965 929.2336,156.5455 929.3526,155.2995 C927.2166,157.5555 924.9476,159.6605 922.5446,161.6175 C920.1416,163.5755 917.5456,165.2815 914.7576,166.7355 C911.9686,168.1905 908.9426,169.3315 905.6806,170.1615 C902.4166,170.9925 898.8866,171.4075 895.0896,171.4075 C889.7506,171.4075 884.6336,170.7555 879.7396,169.4495 C874.8436,168.1455 870.2896,166.2765 866.0776,163.8435 C861.8656,161.4105 858.0376,158.4745 854.5986,155.0325 C851.1566,151.5925 848.2036,147.7665 845.7426,143.5525 C843.2806,139.3405 841.3826,134.7735 840.0476,129.8475 C838.7126,124.9235 838.0456,119.7615 838.0456,114.3625 C838.0456,109.0235 838.7126,103.8615 840.0476,98.8775 C841.3826,93.8945 843.2806,89.2525 845.7426,84.9505 C848.2036,80.6495 851.1566,76.7185 854.5986,73.1585 C858.0376,69.5985 861.8656,66.5595 866.0776,64.0365 C870.2896,61.5155 874.8436,59.5575 879.7396,58.1635 C884.6336,56.7695 889.7506,56.0715 895.0896,56.0715 C898.8866,56.0715 902.4606,56.4725 905.8136,57.2735 C909.1646,58.0745 912.3106,59.2175 915.2466,60.6995 C918.1836,62.1835 920.9276,63.9335 923.4796,65.9505 C926.0296,67.9675 928.3736,70.1635 930.5096,72.5355 C930.7456,70.9335 930.9686,69.3625 931.1766,67.8195 C931.3836,66.2775 931.5766,64.7045 931.7556,63.1025 C932.1116,61.4425 932.6296,60.1515 933.3126,59.2315 C933.9936,58.3125 935.2836,57.8515 937.1836,57.8515 C939.1416,57.8515 941.0836,57.8665 943.0126,57.8965 C944.9406,57.9265 946.8846,57.9405 948.8416,57.9405 C950.2056,57.9405 951.4066,58.4165 952.4466,59.3645 C953.4836,60.3145 954.0036,61.5605 954.0036,63.1025 L954.0036,63.8145 L954.0036,153.8755 C954.0036,163.6075 952.4306,172.0445 949.2866,179.1945 C946.1416,186.3435 941.8696,192.2765 936.4716,196.9925 C931.0726,201.7095 924.7986,205.2255 917.6506,207.5385 C910.4996,209.8525 902.9216,211.0095 894.9116,211.0095 C891.5306,211.0095 888.1336,210.7275 884.7226,210.1635 C881.3106,209.5995 877.9726,208.7985 874.7106,207.7615 C871.4476,206.7225 868.3316,205.4475 865.3656,203.9345 C862.3996,202.4215 859.6996,200.7155 857.2676,198.8175 C856.4956,198.3415 855.8586,197.7635 855.3546,197.0815 C854.8496,196.3995 854.5986,195.5545 854.5986,194.5455 C854.5986,194.0705 854.6566,193.5805 854.7766,193.0775 C854.8946,192.5725 855.1906,191.9935 855.6656,191.3425 L862.3406,181.6415 C862.9926,180.8695 863.5866,180.2915 864.1196,179.9055 C864.6546,179.5205 865.2466,179.3275 865.9006,179.3275 C866.3746,179.3865 866.9236,179.5055 867.5466,179.6845 C868.1696,179.8625 868.8066,180.2175 869.4596,180.7515 C870.8836,181.9975 872.6486,183.0505 874.7546,183.9105 C876.8606,184.7705 879.0556,185.4825 881.3406,186.0465 C883.6236,186.6105 885.9076,187.0105 888.1936,187.2485 C890.4766,187.4855 892.5096,187.6045 894.2886,187.6045 C898.6786,187.6045 902.8766,187.0395 906.8816,185.9135 C910.8866,184.7855 914.4466,183.1545 917.5606,181.0195 C920.6756,178.8825 923.2256,176.3025 925.2146,173.2765 C927.2006,170.2505 928.3736,166.8685 928.7296,163.1315" id="Fill-25"></path>
            <path d="M962.5389,63.3699 C962.5389,61.6499 963.1179,60.3439 964.2789,59.4539 C965.4399,58.5639 966.7059,58.1199 968.0759,58.1199 L979.4169,58.1199 C980.9039,58.1199 982.0359,58.5639 982.8109,59.4539 C983.5839,60.3439 984.1799,61.4429 984.5969,62.7469 C985.0139,64.0529 985.3109,65.4609 985.4889,66.9739 C985.6669,68.4869 985.8759,69.8669 986.1149,71.1129 C987.4249,69.2739 988.8939,67.4789 990.5269,65.7279 C992.1579,63.9789 994.0119,62.4219 996.0889,61.0559 C998.1649,59.6919 1000.5079,58.5949 1003.1189,57.7639 C1005.7289,56.9329 1008.6949,56.5169 1012.0179,56.5169 C1014.9849,56.5169 1017.6539,56.7109 1020.0279,57.0959 C1022.3999,57.4829 1024.6699,58.0749 1026.8359,58.8759 C1029.0009,59.6769 1031.1219,60.7159 1033.1989,61.9909 C1035.2749,63.2669 1037.4999,64.7649 1039.8739,66.4849 C1040.8819,67.1389 1041.7569,67.8789 1042.4989,68.7099 C1043.2399,69.5409 1043.6109,70.5199 1043.6109,71.6459 C1043.5519,72.1219 1043.4629,72.6249 1043.3449,73.1599 C1043.2249,73.6929 1042.9879,74.2269 1042.6329,74.7609 L1035.3349,86.3299 C1034.8589,86.9239 1034.3109,87.3539 1033.6879,87.6199 C1033.0649,87.8879 1032.5169,88.0209 1032.0419,88.0209 C1031.0929,88.0209 1030.1739,87.7849 1029.2829,87.3089 C1027.3259,86.2419 1025.5459,85.2329 1023.9439,84.2839 C1022.3419,83.3349 1020.7689,82.5189 1019.2269,81.8359 C1017.6839,81.1549 1016.0979,80.6209 1014.4659,80.2339 C1012.8339,79.8489 1011.0099,79.6559 1008.9929,79.6559 C1003.7119,79.6559 999.2479,81.3469 995.5999,84.7279 C991.9509,88.1099 989.5039,92.7679 988.2579,98.7009 L988.2579,165.8019 C988.2579,169.3609 986.4109,171.1409 982.7209,171.1409 L968.0759,171.1409 C964.3839,171.1409 962.5389,169.3609 962.5389,165.8019 L962.5389,63.3699 Z" id="Fill-27"></path>
            <path d="M1062.785,114.5398 C1062.785,119.2868 1063.616,123.7808 1065.277,128.0218 C1066.937,132.2648 1069.252,135.9868 1072.219,139.1908 C1075.184,142.3948 1078.671,144.9318 1082.676,146.7998 C1086.681,148.6688 1091.055,149.6028 1095.802,149.6028 C1100.607,149.6028 1105.101,148.6688 1109.284,146.7998 C1113.468,144.9318 1117.1,142.3948 1120.186,139.1908 C1123.27,135.9868 1125.704,132.2648 1127.483,128.0218 C1129.264,123.7808 1130.153,119.2868 1130.153,114.5398 C1130.153,109.8538 1129.264,105.3888 1127.483,101.1458 C1125.704,96.9048 1123.27,93.1818 1120.186,89.9778 C1117.1,86.7738 1113.468,84.2238 1109.284,82.3238 C1105.101,80.4258 1100.607,79.4768 1095.802,79.4768 C1091.055,79.4768 1086.681,80.4258 1082.676,82.3238 C1078.671,84.2238 1075.184,86.7738 1072.219,89.9778 C1069.252,93.1818 1066.937,96.9048 1065.277,101.1458 C1063.616,105.3888 1062.785,109.8538 1062.785,114.5398 Z M1155.339,165.8898 C1155.339,166.9568 1155.116,167.8328 1154.671,168.5148 C1154.226,169.1968 1153.647,169.7308 1152.935,170.1158 C1152.223,170.5028 1151.407,170.7688 1150.488,170.9168 C1149.568,171.0658 1148.604,171.1398 1147.597,171.1398 L1136.472,171.1398 C1134.572,171.1398 1133.253,170.6368 1132.512,169.6268 C1131.769,168.6188 1131.222,167.3438 1130.865,165.7998 L1130.331,158.2358 C1128.254,160.3128 1125.956,162.2558 1123.434,164.0638 C1120.912,165.8748 1118.198,167.4458 1115.292,168.7808 C1112.384,170.1158 1109.299,171.1528 1106.036,171.8958 C1102.772,172.6378 1099.42,173.0088 1095.98,173.0088 C1090.64,173.0088 1085.493,172.3108 1080.54,170.9168 C1075.585,169.5238 1070.942,167.5658 1066.612,165.0438 C1062.281,162.5218 1058.349,159.4808 1054.82,155.9218 C1051.29,152.3618 1048.264,148.4168 1045.743,144.0858 C1043.221,139.7558 1041.263,135.0978 1039.87,130.1138 C1038.475,125.1298 1037.778,119.9388 1037.778,114.5398 C1037.778,109.1418 1038.475,103.9498 1039.87,98.9658 C1041.263,93.9818 1043.221,89.3258 1045.743,84.9938 C1048.264,80.6638 1051.29,76.7328 1054.82,73.2028 C1058.349,69.6728 1062.281,66.6468 1066.612,64.1248 C1070.942,61.6038 1075.585,59.6458 1080.54,58.2508 C1085.493,56.8578 1090.64,56.1598 1095.98,56.1598 C1099.776,56.1598 1103.395,56.5608 1106.837,57.3618 C1110.277,58.1628 1113.496,59.2898 1116.493,60.7428 C1119.488,62.1978 1122.263,63.9468 1124.813,65.9938 C1127.364,68.0408 1129.678,70.2808 1131.756,72.7128 L1133.001,63.1908 C1133.298,62.1228 1133.58,61.2478 1133.847,60.5648 C1134.113,59.8838 1134.439,59.3348 1134.826,58.9188 C1135.211,58.5048 1135.7,58.2218 1136.294,58.0738 C1136.887,57.9258 1137.629,57.8508 1138.518,57.8508 L1147.418,57.8508 C1148.366,57.8508 1149.316,57.9398 1150.265,58.1178 C1151.215,58.2958 1152.075,58.5778 1152.847,58.9628 C1153.617,59.3498 1154.226,59.8838 1154.671,60.5648 C1155.116,61.2478 1155.339,62.0938 1155.339,63.1018 L1155.339,165.8898 Z" id="Fill-29"></path>
            <path d="M1166.4081,59.2307 C1167.9211,58.4897 1169.8041,58.1187 1172.0591,58.1187 L1181.0481,58.1187 C1182.7671,58.1187 1184.0431,58.6847 1184.8751,59.8157 C1185.7051,60.9477 1186.2671,62.1997 1186.5651,63.5687 L1187.5441,72.1477 C1188.9081,70.1227 1190.4811,68.1727 1192.2611,66.2977 C1194.0411,64.4217 1196.1611,62.7697 1198.6241,61.3397 C1201.0851,59.9107 1203.9641,58.7647 1207.2571,57.9017 C1210.5491,57.0377 1214.3891,56.6057 1218.7811,56.6057 C1222.9331,56.6057 1226.7011,57.0067 1230.0831,57.8107 C1233.4651,58.6147 1236.5191,59.8067 1239.2501,61.3847 C1241.9771,62.9627 1244.4401,64.8987 1246.6361,67.1897 C1248.8301,69.4827 1250.8181,72.1177 1252.5981,75.0947 C1254.0221,72.2977 1255.9491,69.7357 1258.3831,67.4137 C1260.8151,65.0917 1263.6181,63.1127 1266.7931,61.4747 C1269.9661,59.8367 1273.4521,58.5717 1277.2501,57.6787 C1281.0461,56.7867 1284.9921,56.3387 1289.0861,56.3387 C1296.0861,56.3387 1302.2411,57.6147 1307.5521,60.1657 C1312.8611,62.7167 1317.2971,66.2167 1320.8561,70.6667 C1324.4161,75.1157 1327.0991,80.3087 1328.9101,86.2407 C1330.7201,92.1737 1331.6251,98.5217 1331.6251,105.2847 L1331.6251,164.6437 C1331.6251,166.7787 1331.1201,168.3967 1330.1111,169.4927 C1329.1021,170.5917 1327.6491,171.1397 1325.7511,171.1397 L1312.2231,171.1397 C1309.8501,171.1397 1308.2631,170.6957 1307.4631,169.8067 C1306.6621,168.9177 1306.2621,167.3467 1306.2621,165.0937 L1306.2621,105.3507 C1306.2621,102.2087 1305.8161,99.1567 1304.9271,96.1917 C1304.0371,93.2287 1302.6571,90.6067 1300.7881,88.3247 C1298.9201,86.0427 1296.5751,84.2057 1293.7581,82.8127 C1290.9391,81.4187 1287.5731,80.7227 1283.6571,80.7227 C1280.3931,80.7227 1277.3681,81.3007 1274.5801,82.4567 C1271.7901,83.6137 1269.3871,85.2727 1267.3711,87.4367 C1265.3531,89.5997 1263.7671,92.2067 1262.6101,95.2587 C1261.4531,98.3117 1260.8751,101.7047 1260.8751,105.4387 L1260.8751,164.7387 C1260.8751,169.0067 1258.9461,171.1397 1255.0911,171.1397 L1241.4741,171.1397 C1239.1001,171.1397 1237.5281,170.6957 1236.7581,169.8067 C1235.9861,168.9177 1235.6001,167.3467 1235.6001,165.0937 L1235.6001,105.4387 C1235.6001,102.3577 1235.1701,99.3487 1234.3101,96.4147 C1233.4491,93.4807 1232.1151,90.8577 1230.3051,88.5467 C1228.4951,86.2357 1226.1681,84.3687 1223.3191,82.9457 C1220.4711,81.5237 1217.0901,80.8117 1213.1751,80.8117 C1210.4451,80.8117 1207.7151,81.3307 1204.9871,82.3677 C1202.2581,83.4047 1199.7811,84.9027 1197.5551,86.8577 C1195.3311,88.8137 1193.5071,91.2137 1192.0831,94.0597 C1190.6591,96.9037 1189.9171,100.1347 1189.8581,103.7497 L1189.8581,165.8947 C1189.8581,167.4357 1189.3531,168.6947 1188.3451,169.6727 C1187.3361,170.6507 1186.0601,171.1397 1184.5181,171.1397 L1169.8351,171.1397 C1167.8771,171.1397 1166.4371,170.6807 1165.5181,169.7607 C1164.5971,168.8417 1164.1381,167.5217 1164.1381,165.7997 L1164.1381,63.3687 C1164.1381,61.3527 1164.8951,59.9737 1166.4081,59.2307" id="Fill-31"></path>
        </g>
    </g>
</svg>