<?xml version="1.0" encoding="UTF-8"?>
<svg width="24px" height="24px" viewBox="0 0 24 24" version="1.1" xmlns="http://www.w3.org/2000/svg" xmlns:xlink="http://www.w3.org/1999/xlink">
    <!-- Generator: Sketch 52.4 (67378) - http://www.bohemiancoding.com/sketch -->
    <title>Facebook-black</title>
    <desc>Created with Sketch.</desc>
    <g id="desktop" stroke="none" stroke-width="1" fill-rule="evenodd">
        <g id="home" transform="translate(-1131.000000, -67.000000)">
            <path d="M1143.81918,91 L1132.32462,91 C1131.59284,91 1131,90.4067958 1131,89.6753014 L1131,68.3246055 C1131,67.5929249 1131.59293,67 1132.32462,67 L1153.67548,67 C1154.40698,67 1155,67.5929249 1155,68.3246055 L1155,89.6753014 C1155,90.4068889 1154.40688,91 1153.67548,91 L1147.55965,91 L1147.55965,81.7058773 L1150.67926,81.7058773 L1151.14638,78.0837928 L1147.55965,78.0837928 L1147.55965,75.7713207 C1147.55965,74.7226437 1147.85086,74.0080048 1149.35464,74.0080048 L1151.27266,74.0071667 L1151.27266,70.7675453 C1150.94094,70.7234042 1149.80239,70.6247851 1148.47778,70.6247851 C1145.71242,70.6247851 1143.81918,72.3127631 1143.81918,75.4126044 L1143.81918,78.0837928 L1140.69156,78.0837928 L1140.69156,81.7058773 L1143.81918,81.7058773 L1143.81918,91 L1143.81918,91 Z" id="Facebook"></path>
        </g>
    </g>
</svg>