<?xml version="1.0" encoding="UTF-8"?>
<svg width="24px" height="24px" viewBox="0 0 24 24" version="1.1" xmlns="http://www.w3.org/2000/svg" xmlns:xlink="http://www.w3.org/1999/xlink">
    <!-- Generator: Sketch 52.4 (67378) - http://www.bohemiancoding.com/sketch -->
    <title>Instagram-black</title>
    <desc>Created with Sketch.</desc>
    <g id="desktop" stroke="none" stroke-width="1" fill-rule="evenodd">
        <g id="home" transform="translate(-1083.000000, -67.000000)">
            <path d="M1095.00002,67 C1098.259,67 1098.66766,67.0138139 1099.94758,67.0722133 C1101.22484,67.1304697 1102.09717,67.3333433 1102.86046,67.6300083 C1103.64956,67.9366288 1104.31877,68.3469487 1104.98594,69.014064 C1105.65305,69.6812268 1106.06337,70.3504379 1106.37004,71.139544 C1106.66666,71.9028324 1106.86953,72.7751553 1106.92779,74.0524153 C1106.98619,75.3323429 1107,75.7409957 1107,79.0000238 C1107,82.2590043 1106.98619,82.6676571 1106.92779,83.9475847 C1106.86953,85.2248447 1106.66666,86.0971676 1106.37004,86.860456 C1106.06337,87.6495621 1105.65305,88.3187732 1104.98594,88.985936 C1104.31877,89.6530513 1103.64956,90.0633712 1102.86046,90.3700394 C1102.09717,90.6666567 1101.22484,90.8695303 1099.94758,90.9277867 C1098.66766,90.9861861 1098.259,91 1095.00002,91 C1091.741,91 1091.33234,90.9861861 1090.05242,90.9277867 C1088.77516,90.8695303 1087.90283,90.6666567 1087.13954,90.3700394 C1086.35044,90.0633712 1085.68123,89.6530513 1085.01406,88.985936 C1084.34695,88.3187732 1083.93663,87.6495621 1083.63001,86.860456 C1083.33334,86.0971676 1083.13047,85.2248447 1083.07221,83.9475847 C1083.01381,82.6676571 1083,82.2590043 1083,79.0000238 C1083,75.7409957 1083.01381,75.3323429 1083.07221,74.0524153 C1083.13047,72.7751553 1083.33334,71.9028324 1083.63001,71.139544 C1083.93663,70.3504379 1084.34695,69.6812268 1085.01406,69.014064 C1085.68123,68.3469487 1086.35044,67.9366288 1087.13954,67.6300083 C1087.90283,67.3333433 1088.77516,67.1304697 1090.05242,67.0722133 C1091.33234,67.0138139 1091.741,67 1095.00002,67 Z M1095.00002,69.1621583 C1091.79587,69.1621583 1091.41632,69.1744003 1090.15097,69.2321328 C1088.98098,69.2854829 1088.34559,69.4809732 1087.92274,69.6453107 C1087.36261,69.8629984 1086.96287,70.1230329 1086.54297,70.5429749 C1086.12303,70.9628692 1085.863,71.3626144 1085.64531,71.9227435 C1085.48097,72.3455912 1085.28548,72.9809821 1085.23213,74.1509702 C1085.1744,75.4163218 1085.16216,75.7958701 1085.16216,79.0000238 C1085.16216,82.2041299 1085.1744,82.5836782 1085.23213,83.8490298 C1085.28548,85.0190179 1085.48097,85.6544088 1085.64531,86.0772565 C1085.863,86.6373856 1086.12308,87.0371308 1086.54297,87.4570251 C1086.96287,87.8769671 1087.36261,88.1370016 1087.92274,88.3546893 C1088.34559,88.5190268 1088.98098,88.7145171 1090.15097,88.7678672 C1091.41618,88.8255997 1091.79563,88.8378417 1095.00002,88.8378417 C1098.20437,88.8378417 1098.58387,88.8255997 1099.84903,88.7678672 C1101.01902,88.7145171 1101.65441,88.5190268 1102.07726,88.3546893 C1102.63739,88.1370016 1103.03713,87.8769671 1103.45703,87.4570251 C1103.87697,87.0371308 1104.137,86.6373856 1104.35469,86.0772565 C1104.51903,85.6544088 1104.71452,85.0190179 1104.76787,83.8490298 C1104.8256,82.5836782 1104.83784,82.2041299 1104.83784,79.0000238 C1104.83784,75.7958701 1104.8256,75.4163218 1104.76787,74.1509702 C1104.71452,72.9809821 1104.51903,72.3455912 1104.35469,71.9227435 C1104.137,71.3626144 1103.87697,70.9628692 1103.45703,70.5429749 C1103.03713,70.1230329 1102.63739,69.8629984 1102.07726,69.6453107 C1101.65441,69.4809732 1101.01902,69.2854829 1099.84903,69.2321328 C1098.58368,69.1744003 1098.20413,69.1621583 1095.00002,69.1621583 Z M1095.00002,72.8378417 C1098.40329,72.8378417 1101.16216,75.5967121 1101.16216,79.0000238 C1101.16216,82.4032879 1098.40329,85.1621583 1095.00002,85.1621583 C1091.59671,85.1621583 1088.83784,82.4032879 1088.83784,79.0000238 C1088.83784,75.5967121 1091.59671,72.8378417 1095.00002,72.8378417 Z M1095.00002,83 C1097.20915,83 1099,81.2091493 1099,79.0000238 C1099,76.7908507 1097.20915,75 1095.00002,75 C1092.79085,75 1091,76.7908507 1091,79.0000238 C1091,81.2091493 1092.79085,83 1095.00002,83 Z M1102.84564,72.5943839 C1102.84564,73.3896825 1102.20091,74.034362 1101.40562,74.034362 C1100.61037,74.034362 1099.96564,73.3896825 1099.96564,72.5943839 C1099.96564,71.7990854 1100.61037,71.1543582 1101.40562,71.1543582 C1102.20091,71.1543582 1102.84564,71.7990854 1102.84564,72.5943839 Z" id="Instagram"></path>
        </g>
    </g>
</svg>